<?xml version="1.0" standalone="no"?><!DOCTYPE svg PUBLIC "-//W3C//DTD SVG 1.1//EN" "http://www.w3.org/Graphics/SVG/1.1/DTD/svg11.dtd"><svg t="1617092606759" class="icon" viewBox="0 0 1024 1024" version="1.1" xmlns="http://www.w3.org/2000/svg" p-id="6251" xmlns:xlink="http://www.w3.org/1999/xlink" width="200" height="200"><defs><style type="text/css"></style></defs><path d="M315.880727 25.6c16.290909 0 31.348364 8.657455 39.563637 22.714182l146.944 251.950545H204.846545l-120.087272-205.824a45.777455 45.777455 0 0 1 39.563636-68.840727h191.557818z m564.596364 0a45.777455 45.777455 0 0 1 39.563636 68.840727l-120.087272 205.824H502.411636l146.967273-251.950545c8.192-14.056727 23.272727-22.714182 39.540364-22.714182h191.557818z" fill="#F8A766" p-id="6252"></path><path d="M502.388364 572.811636m-425.611637 0a425.611636 425.611636 0 1 0 851.223273 0 425.611636 425.611636 0 1 0-851.223273 0Z" fill="#FFF1A0" p-id="6253"></path><path d="M502.388364 572.811636m-304.011637 0a304.011636 304.011636 0 1 0 608.023273 0 304.011636 304.011636 0 1 0-608.023273 0Z" fill="#FFD01D" opacity=".728" p-id="6254"></path><path d="M559.639273 762.321455V377.809455h-56.529455c-24.064 31.045818-59.298909 51.549091-105.681454 61.509818v44.916363h9.495272c22.178909 0 36.468364 1.512727 42.868364 4.608 6.423273 3.095273 10.333091 7.633455 11.752727 13.661091 1.419636 6.004364 2.141091 23.901091 2.141091 53.666909v206.149819h95.953455z" fill="#FF753B" p-id="6255"></path></svg>