<?xml version="1.0" standalone="no"?><!DOCTYPE svg PUBLIC "-//W3C//DTD SVG 1.1//EN" "http://www.w3.org/Graphics/SVG/1.1/DTD/svg11.dtd"><svg t="1617092624858" class="icon" viewBox="0 0 1024 1024" version="1.1" xmlns="http://www.w3.org/2000/svg" p-id="6394" xmlns:xlink="http://www.w3.org/1999/xlink" width="200" height="200"><defs><style type="text/css"></style></defs><path d="M317.672727 25.6c16.290909 0 31.325091 8.657455 39.540364 22.714182l146.967273 251.950545H206.615273L86.574545 94.440727A45.777455 45.777455 0 0 1 126.138182 25.6h191.534545z m564.596364 0a45.777455 45.777455 0 0 1 39.563636 68.840727l-120.087272 205.824H504.180364L651.170909 48.314182c8.192-14.056727 23.272727-22.714182 39.540364-22.714182h191.557818z" fill="#99C2D4" p-id="6395"></path><path d="M502.388364 572.811636m-425.611637 0a425.611636 425.611636 0 1 0 851.223273 0 425.611636 425.611636 0 1 0-851.223273 0Z" fill="#C9E5FD" p-id="6396"></path><path d="M502.388364 572.811636m-304.011637 0a304.011636 304.011636 0 1 0 608.023273 0 304.011636 304.011636 0 1 0-608.023273 0Z" fill="#A3C8DB" opacity=".728" p-id="6397"></path><path d="M619.496727 762.321455V696.785455h-105.216c53.829818-79.639273 86.248727-131.723636 97.256728-156.276364 11.008-24.552727 16.500364-47.825455 16.500363-69.818182 0-28.997818-9.774545-52.945455-29.323636-71.866182-19.549091-18.920727-48.407273-28.392727-86.574546-28.392727-19.479273 0-36.189091 3.118545-50.106181 9.285818a82.222545 82.222545 0 0 0-33.978182 27.298909c-8.704 12.055273-14.173091 24.273455-16.384 36.701091-2.210909 12.427636-3.328 29.416727-3.328 50.967273v13.986909h85.992727v-36.561455c0-16.942545 1.768727-28.276364 5.352727-33.978181 3.537455-5.701818 8.96-8.541091 16.244364-8.541091 7.284364 0 12.706909 2.56 16.290909 7.726545 3.537455 5.12 5.329455 12.939636 5.329455 23.389091 0 13.614545-5.911273 32.581818-17.687273 56.878546-11.799273 24.296727-48.965818 87.598545-111.522909 189.882181v54.853819h211.153454z" fill="#6890A4" p-id="6398"></path></svg>