<?xml version="1.0" standalone="no"?><!DOCTYPE svg PUBLIC "-//W3C//DTD SVG 1.1//EN" "http://www.w3.org/Graphics/SVG/1.1/DTD/svg11.dtd"><svg t="1617092637991" class="icon" viewBox="0 0 1024 1024" version="1.1" xmlns="http://www.w3.org/2000/svg" p-id="6537" xmlns:xlink="http://www.w3.org/1999/xlink" width="200" height="200"><defs><style type="text/css"></style></defs><path d="M317.672727 25.6c16.290909 0 31.325091 8.657455 39.540364 22.714182l146.967273 251.950545H206.615273L86.574545 94.440727A45.777455 45.777455 0 0 1 126.138182 25.6h191.534545z m564.596364 0a45.777455 45.777455 0 0 1 39.563636 68.840727l-120.087272 205.824H504.180364L651.170909 48.314182c8.192-14.056727 23.272727-22.714182 39.540364-22.714182h191.557818z" fill="#D89869" p-id="6538"></path><path d="M502.388364 572.811636m-425.611637 0a425.611636 425.611636 0 1 0 851.223273 0 425.611636 425.611636 0 1 0-851.223273 0Z" fill="#FFCDB6" p-id="6539"></path><path d="M502.388364 572.811636m-304.011637 0a304.011636 304.011636 0 1 0 608.023273 0 304.011636 304.011636 0 1 0-608.023273 0Z" fill="#E29B63" opacity=".728" p-id="6540"></path><path d="M502.318545 793.437091c27.624727 0 50.269091-4.538182 67.909819-13.591273 17.640727-9.076364 30.068364-22.318545 37.236363-39.726545 7.214545-17.408 10.798545-41.890909 10.798546-73.425455 0-42.496-3.677091-69.492364-11.031273-81.012363-7.354182-11.543273-18.548364-19.828364-33.582545-24.901819 15.197091-8.145455 25.832727-17.198545 31.883636-27.089454 6.050909-9.890909 9.076364-25.949091 9.076364-48.174546 0-32.837818-8.424727-58.507636-25.274182-76.962909-16.826182-18.478545-48.872727-27.694545-96.093091-27.694545-37.748364 0-65.303273 6.632727-82.618182 19.968-17.338182 13.312-25.995636 38.935273-25.995636 76.846545v33.838546h99.048727v-32.605091c0-15.197091 1.28-25.134545 3.793454-29.789091 2.56-4.654545 7.237818-6.981818 14.103273-6.981818 6.050909 0 10.496 2.210909 13.358546 6.609454 2.862545 4.421818 4.305455 13.568 4.305454 27.461818v22.062546c0 12.916364-1.233455 22.388364-3.677091 28.439273-2.466909 6.050909-6.469818 9.960727-12.032 11.776-5.538909 1.792-20.084364 2.699636-43.636363 2.699636v57.6c19.293091 0.325818 32.279273 1.605818 38.981818 3.793455 6.702545 2.210909 11.776 6.842182 15.197091 13.870545 3.444364 7.028364 5.166545 18.152727 5.166545 33.326545v27.461819c0 24.855273-1.233455 40.215273-3.677091 46.08-2.466909 5.888-7.517091 8.843636-15.220363 8.843636-7.028364 0-11.543273-2.327273-13.591273-6.981818-2.048-4.654545-3.072-15.592727-3.072-32.744727v-64.465455h-99.048727v31.371636c0 37.748364 2.816 64.279273 8.471272 79.546182 5.632 15.290182 17.408 28.206545 35.304728 38.749091 17.896727 10.542545 42.519273 15.825455 73.914181 15.825455z" fill="#BA6427" p-id="6541"></path></svg>