<?xml version="1.0" standalone="no"?><!DOCTYPE svg PUBLIC "-//W3C//DTD SVG 1.1//EN" "http://www.w3.org/Graphics/SVG/1.1/DTD/svg11.dtd"><svg t="1617072508037" class="icon" viewBox="0 0 1024 1024" version="1.1" xmlns="http://www.w3.org/2000/svg" p-id="30703" xmlns:xlink="http://www.w3.org/1999/xlink" width="64" height="64"><defs><style type="text/css"></style></defs><path d="M512 0v220.070175c92.070175 0 168.421053 76.350877 168.421053 168.421053s-76.350877 168.421053-168.421053 168.421053v467.087719l307.649123-388.491228c56.140351-69.614035 85.333333-154.947368 85.333333-242.526316C904.982456 177.403509 727.578947 0 512 0" fill="#CD2A00" p-id="30704"></path><path d="M343.578947 388.491228c0-92.070175 76.350877-168.421053 168.421053-168.421053V0C296.421053 0 119.017544 177.403509 119.017544 392.982456c0 89.824561 29.192982 172.912281 85.333333 242.526316l307.649123 388.491228V556.912281c-92.070175 0-168.421053-76.350877-168.421053-168.421053" fill="#FF3501" p-id="30705"></path><path d="M806.175439 388.491228c0-161.684211-132.491228-294.175439-294.175439-294.175439v588.350878c161.684211 0 294.175439-132.491228 294.175439-294.175439" fill="#D8D7DA" p-id="30706"></path><path d="M217.824561 388.491228c0 161.684211 132.491228 294.175439 294.175439 294.175439V94.315789c-161.684211 0-294.175439 132.491228-294.175439 294.175439" fill="#FFFFFF" p-id="30707"></path></svg>