<?xml version="1.0" standalone="no"?><!DOCTYPE svg PUBLIC "-//W3C//DTD SVG 1.1//EN" "http://www.w3.org/Graphics/SVG/1.1/DTD/svg11.dtd"><svg t="1616988865440" class="icon" viewBox="0 0 1024 1024" version="1.1" xmlns="http://www.w3.org/2000/svg" p-id="51261" xmlns:xlink="http://www.w3.org/1999/xlink" width="80" height="80"><defs><style type="text/css"></style></defs><path d="M494.4 22.4C228.8 22.4 14.4 236.8 14.4 500.8s214.4 478.4 478.4 478.4 478.4-214.4 478.4-478.4c1.6-264-212.8-478.4-476.8-478.4zM249.6 528c-11.2 11.2-30.4 11.2-41.6 0-96-89.6-97.6-233.6-3.2-323.2 8-8 17.6-9.6 28.8-8 9.6 3.2 17.6 9.6 20.8 19.2 3.2 9.6 0 20.8-8 27.2-33.6 32-52.8 75.2-52.8 121.6 0 46.4 20.8 91.2 56 123.2 11.2 11.2 11.2 28.8 0 40z m52.8-257.6l9.6-9.6c11.2-11.2 30.4-11.2 41.6 0 11.2 9.6 12.8 25.6 3.2 36.8l-1.6 1.6c-38.4 36.8-36.8 96 1.6 132.8 11.2 11.2 11.2 28.8 0 38.4-11.2 11.2-30.4 11.2-41.6 0-59.2-51.2-64-140.8-12.8-200zM656 801.6c-1.6 0-1.6 0 0 0l-6.4 1.6c-12.8 4.8-28.8-1.6-33.6-14.4l-28.8-73.6H400l-28.8 72c-4.8 14.4-22.4 22.4-38.4 16-16-4.8-24-20.8-17.6-35.2L448 428.8c-28.8-17.6-41.6-51.2-30.4-81.6 9.6-30.4 41.6-51.2 75.2-51.2 35.2 0 65.6 20.8 75.2 52.8 9.6 32-3.2 65.6-32 81.6l132.8 340.8c6.4 11.2 0 25.6-12.8 30.4z m27.2-339.2l-9.6 9.6c-8 8-19.2 9.6-28.8 8-9.6-1.6-17.6-9.6-20.8-19.2-3.2-9.6 0-20.8 8-27.2 36.8-33.6 40-89.6 8-126.4l-6.4-6.4c-11.2-9.6-11.2-27.2-1.6-36.8l1.6-1.6c6.4-4.8 12.8-8 20.8-8s14.4 3.2 20.8 8c59.2 52.8 62.4 142.4 8 200z m97.6 65.6c-11.2 11.2-30.4 11.2-41.6 0-11.2-9.6-11.2-25.6-1.6-36.8l1.6-1.6c73.6-67.2 73.6-177.6 1.6-246.4-8-6.4-11.2-17.6-8-27.2 3.2-9.6 11.2-17.6 20.8-19.2 9.6-3.2 20.8 0 28.8 8 94.4 89.6 94.4 235.2-1.6 323.2z" p-id="51262" fill="#2489C1"></path><path d="M483.2 457.6l-30.4 80c-1.6 6.4 1.6 12.8 8 12.8H528c6.4 0 11.2-6.4 8-12.8l-36.8-80c-3.2-8-12.8-6.4-16 0zM428.8 680H560c9.6 0 16-9.6 12.8-17.6l-22.4-60.8c-1.6-4.8-6.4-8-12.8-8h-86.4c-6.4 0-11.2 3.2-12.8 9.6L416 662.4c-3.2 8 3.2 17.6 12.8 17.6z" p-id="51263" fill="#2489C1"></path></svg>