<?xml version="1.0" standalone="no"?><!DOCTYPE svg PUBLIC "-//W3C//DTD SVG 1.1//EN" "http://www.w3.org/Graphics/SVG/1.1/DTD/svg11.dtd"><svg t="1616989505010" class="icon" viewBox="0 0 1024 1024" version="1.1" xmlns="http://www.w3.org/2000/svg" p-id="3998" data-spm-anchor-id="a313x.7781069.0.i0" xmlns:xlink="http://www.w3.org/1999/xlink" width="80" height="80"><defs><style type="text/css"></style></defs><path d="M 984.535 316.488 a 513.224 513.224 0 0 0 -110.92 -166.001 a 513.249 513.249 0 0 0 -166.006 -110.92 A 513.27 513.27 0 0 0 511.795 0.6144 a 513.28 513.28 0 0 0 -195.82 38.953 a 513.229 513.229 0 0 0 -166.001 110.92 A 513.244 513.244 0 0 0 39.0554 316.488 A 513.28 513.28 0 0 0 0.1024 512.312 a 513.28 513.28 0 0 0 38.953 195.814 a 513.239 513.239 0 0 0 110.92 166.001 a 513.244 513.244 0 0 0 166.006 110.925 A 513.316 513.316 0 0 0 511.795 1024 c 66.9747 0 133.934 -13.3171 195.814 -38.9478 a 513.254 513.254 0 0 0 166.001 -110.925 a 513.239 513.239 0 0 0 110.92 -166.001 a 513.28 513.28 0 0 0 38.953 -195.814 c 0 -66.985 -13.3171 -133.939 -38.953 -195.825 Z M 314.235 558.269 l -0.49152 0.48128 l -26.1478 24.6733 c -18.2528 16.9318 -42.921 27.5763 -70.0621 27.5763 c -55.7466 0 -101.14 -44.5082 -101.14 -99.6608 c 0 -54.6662 45.3939 -99.1744 101.14 -99.1744 c 26.6445 0 49.833 10.1581 68.0858 26.6086 l 4.93568 4.352 l 22.697 22.2515 l 0.49152 -0.48128 l 48.8448 -46.4384 l 47.8566 48.8602 l -47.8618 44.9894 l 46.8736 44.9894 l -46.8736 47.4112 l -48.3482 -46.4384 Z m 309.35 251.566 a 102.61 102.61 0 0 1 -63.1603 -21.7754 l -0.98816 -0.96256 l -37.4938 -34.3552 h -0.49152 l -35.5226 33.3824 l -0.98816 0.9728 a 102.272 102.272 0 0 1 -64.1382 22.7379 c -55.7466 0 -101.14 -44.5082 -101.14 -99.1744 c 0 -25.641 9.86624 -48.8653 26.153 -66.7648 l 0.98304 -1.44896 l 128.768 -130.627 l -128.768 -131.584 c -16.2816 -17.8995 -26.1478 -41.1238 -26.1478 -66.7648 c 0 -54.6662 45.3888 -99.1744 101.146 -99.1744 c 24.663 0 47.36 8.704 64.6246 22.7328 l 0.98816 0.9728 l 35.5277 33.3824 l 37.4886 -34.3552 l 0.99328 -0.48128 a 101.535 101.535 0 0 1 63.1501 -21.7651 c 55.7466 0 101.14 44.503 101.14 99.1744 c 0 25.1546 -9.37472 48.3789 -25.1648 65.792 l -0.98816 1.44896 l -129.756 130.621 l 52.7872 53.7037 l 1.98144 1.93024 l 73.5078 76.9229 l 1.9712 0.4864 c 15.2986 17.8995 25.1699 40.6374 25.1699 65.792 c 0 54.6714 -45.3939 99.1795 -101.632 99.1795 Z m 202.772 -198.349 c -27.136 0 -51.8093 -10.6496 -70.0621 -27.5814 l -26.6394 -25.1546 l -0.99328 0.96768 l -47.36 45.9571 l -46.8685 -47.4112 l 46.8685 -44.9894 l -0.49664 -0.48128 l -46.8634 -44.9946 l 47.8566 -48.3789 l 1.9712 2.42176 l 45.8854 43.5354 l 0.49152 0.4864 l 22.6918 -22.2515 l 4.93568 -3.87072 c 18.2528 -16.4506 41.4413 -26.6086 68.0806 -26.6086 c 55.7568 0 101.14 44.5082 101.637 99.1744 c 0 54.6662 -45.3888 99.1744 -101.135 99.1744 Z m -179.098 -273.823 c 6.41536 -6.29248 9.86624 -14.5152 9.86624 -23.7056 c 0 -17.9046 -14.7968 -32.9011 -33.5462 -32.9011 c -8.87808 0 -16.7782 2.89792 -22.697 8.704 l -26.1478 25.6461 l -0.49664 0.4864 l 37.4989 35.799 l -50.3194 51.2768 l -39.9667 -38.7021 l -39.9616 37.7344 l -50.3245 -50.3091 l 39.9616 -34.3552 l -29.5936 -29.0202 l -0.49664 -0.48128 a 34.2118 34.2118 0 0 0 -20.7258 -6.77376 c -18.2528 0 -33.5462 14.5101 -33.5462 32.896 c 0 8.22272 2.95936 15.4778 7.89504 21.2838 l 126.792 129.172 l 125.809 -126.751 Z m -126.797 223.017 l -126.792 129.178 c -4.93568 5.80096 -7.89504 13.056 -7.89504 21.2838 c 0 17.8944 14.7968 32.896 33.5462 32.896 c 7.89504 0 15.2934 -2.41664 20.7206 -6.77376 l 30.1005 -29.0253 l -39.9667 -35.3178 l 49.3414 -50.7955 l 39.4701 37.7344 l 0.49152 0.4864 l 39.9616 -39.6698 l 50.816 51.7632 l -37.0022 36.2854 l -0.49152 0.48128 l 26.6394 26.1222 a 33.7766 33.7766 0 0 0 22.697 8.70912 c 18.7443 0 34.0378 -14.5101 34.0378 -32.896 c 0 -9.1904 -3.9424 -17.4182 -9.86624 -23.7056 l -125.809 -126.756 Z m 305.894 -81.2698 c -7.40352 0 -14.8019 2.41664 -20.2342 6.76864 c -1.9712 1.45408 -2.46272 1.94048 -2.46272 1.94048 l -25.1648 24.1869 l 25.1648 25.1546 c 5.4272 4.8384 13.3222 8.22272 22.1952 8.22272 c 18.2579 0 33.5514 -14.9914 34.048 -32.896 a 33.3619 33.3619 0 0 0 -33.5462 -33.3824 Z M 238.259 485.217 c -5.92384 -4.352 -12.8307 -6.77376 -20.2291 -6.77376 c -18.7494 0 -34.048 14.5101 -34.048 32.896 c 0 18.3808 15.2986 33.3824 34.048 33.3824 c 8.38656 0 16.2816 -2.90304 22.2003 -8.22272 l 25.1597 -25.1597 l -21.7088 -20.8026 a 28.1242 28.1242 0 0 0 -5.42208 -5.3248 Z" fill="#D81E06" p-id="3999"></path></svg>