<?xml version="1.0" standalone="no"?><!DOCTYPE svg PUBLIC "-//W3C//DTD SVG 1.1//EN" "http://www.w3.org/Graphics/SVG/1.1/DTD/svg11.dtd"><svg t="1616988982706" class="icon" viewBox="0 0 1024 1024" version="1.1" xmlns="http://www.w3.org/2000/svg" p-id="54882" xmlns:xlink="http://www.w3.org/1999/xlink" width="80" height="80"><defs><style type="text/css"></style></defs><path d="M512.45114137 403.28699638l-21.71108305 57.62568308h42.20472574zM480.49323703 492.87058381l-11.56571807 30.74046123h87.1487012l-11.56571806-30.74046123z" fill="#2489C1" p-id="54883"></path><path d="M510.32061593 33.28546934c-191.95033886 0-347.68171967 154.31102769-347.68171969 345.04392343 0 88.16323716 33.68261824 167.29709885 86.94579401 228.27075337 1.31889674 2.6377962 3.85523934 5.17413607 5.17413609 7.81193227 147.91944851 154.31102769 231.31436113 333.27529823 231.31436113 333.27529819l7.3046643 14.10205789 16.73985697 31.65354634 16.84130773-32.97244308 12.78316112-23.84161124s80.75711918-170.34070665 223.40097808-322.11539452c2.6377962-2.6377962 3.85523934-3.85523934 5.17413604-6.49303555 54.48061889-60.97365449 88.16323716-141.42641287 88.1632371-228.27075053 0.1014536-192.05179243-155.5284736-346.46427372-346.15991288-346.46427657zM369.09711016 436.56379746c-6.39158197 6.39158197-17.95730002 6.39158197-24.34887922 0-56.30678637-56.30678637-56.30678637-147.31072411-1.31889952-204.83495367 6.39158197-6.39158197 17.95730002-6.39158197 24.34888206 0 6.39158197 6.39158197 6.39158197 17.95730002 0 24.34887925-19.17474319 20.49363989-30.74046124 48.69776129-30.74046404 76.8004263 0 29.42156452 11.56571806 57.62568313 32.05936072 79.43822246 6.39158197 6.29012837 6.39158197 17.85584644 0 24.24742566z m37.13204322-169.02180998c6.39158197-6.39158197 17.95730002-6.39158197 24.34887923 0 6.39158197 6.39158197 6.39158197 17.95730002 0 24.34888206-21.81253942 23.0299825-21.81253942 60.16202575 1.31889671 83.19200546 6.39158197 6.39158197 6.39158197 17.95730002 0 24.34888201-6.39158197 7.71047871-17.95730002 7.71047871-24.34887923 0-35.91459732-35.81314371-37.2334968-94.7577263-1.31889671-131.88976953z m199.76227118 340.57996256l-2.53634263 1.31889951c-8.92792179 3.85523934-17.95730002-1.31889674-20.49363992-8.92792464l-16.6384033-46.05996506h-108.85978419l-16.6384005 44.84252192c-2.53634263 8.92792179-12.78316114 14.10206071-21.81253944 10.24682139-8.92792179-2.53634263-14.10206071-12.78316114-10.24682136-21.81253943l78.11932579-213.86433185c-5.07268247-3.85523934-8.92792179-7.71047871-12.78316397-12.78316119-14.10206071-20.49363989-8.92792179-49.91520443 12.78316397-64.01726508 20.49363989-14.10206071 49.91520443-8.92792179 64.01726229 12.78316118 14.10206071 20.49363989 8.92792179 49.91520443-12.78316117 64.01726509l76.80042629 213.86433185c3.85523934 8.92792179-1.21744315 17.85584644-8.92792186 20.39218631z m12.78316117-208.69019303c-6.39158197 7.71047871-17.95730002 6.39158197-24.34887922 0-7.71047871-6.39158197-6.39158197-17.95730002 0-24.34888201 23.0299825-23.0299825 24.34887922-60.16202575 1.31889673-83.19200546-7.71047871-6.39158197-6.39158197-17.95730002 0-24.34888206 7.71047871-6.39158197 17.95730002-6.39158197 24.34887922 0 35.81314371 37.13204321 35.81314371 96.07662305-1.31889673 131.88976953z m62.79981918 35.81314373c-6.39158197 6.39158197-17.95730002 6.39158197-24.34887924 0-6.39158197-6.39158197-6.39158197-17.95730002 0-24.34887923 43.5236224-42.30617927 43.5236224-111.39612686 1.31889667-154.91975204-7.71047871-6.39158197-6.39158197-17.95730002 0-24.34887922 6.39158197-7.71047871 17.95730002-6.39158197 24.34888205 0 54.98788687 57.62568313 54.98788687 148.62962367-1.31889948 203.61751049z" fill="#2489C1" p-id="54884"></path></svg>