<?xml version="1.0" standalone="no"?><!DOCTYPE svg PUBLIC "-//W3C//DTD SVG 1.1//EN" "http://www.w3.org/Graphics/SVG/1.1/DTD/svg11.dtd"><svg t="1616989551569" class="icon" viewBox="0 0 1024 1024" version="1.1" xmlns="http://www.w3.org/2000/svg" p-id="7856" xmlns:xlink="http://www.w3.org/1999/xlink" width="80" height="80"><defs><style type="text/css"></style></defs><path d="M512 0C229.376 0 0 229.376 0 512s229.376 512 512 512 512-229.376 512-512S794.624 0 512 0zM386.048 208.896c4.096-8.704 15.36-12.8 29.696-12.8H614.4c10.24-1.024 19.968 4.096 25.6 12.8 4.608 10.24 3.584 22.528-2.048 32.256L590.848 307.2c-11.264 12.8-27.136 20.48-44.544 21.504H482.304c-17.408-1.024-33.28-8.704-45.056-21.504l-47.104-66.048c-9.216-8.192-11.264-22.016-4.096-32.256z m260.096 501.76l-109.056 104.448c-7.168 6.656-15.872 10.24-25.6 10.752-9.728 1.024-19.456-3.072-25.6-10.752l-109.056-104.448c-10.752-12.288-14.848-29.184-10.752-45.056l85.504-275.456c7.168-17.408 23.552-29.184 42.496-29.696h35.84c18.944 0 35.84 11.776 42.496 29.696l86.016 275.456c3.584 15.872-1.024 32.768-12.288 45.056z" p-id="7857" fill="#D81E06"></path></svg>