<?xml version="1.0" encoding="UTF-8"?>
<svg width="52px" height="52px" viewBox="0 0 52 52" version="1.1" xmlns="http://www.w3.org/2000/svg" xmlns:xlink="http://www.w3.org/1999/xlink">
    <title>用户-宽移融合用户-图例</title>
    <g id="图标" stroke="none" stroke-width="1" fill="none" fill-rule="evenodd">
        <g id="用户-宽移融合用户-图例">
            <circle id="椭圆形" fill="#FFFFFF" cx="26" cy="26" r="25"></circle>
            <path d="M26,0 C40.3594035,0 52,11.6405965 52,26 C52,40.3594035 40.3594035,52 26,52 C11.6405965,52 0,40.3594035 0,26 C0,11.6405965 11.6405965,0 26,0 Z M26,2 C12.745166,2 2,12.745166 2,26 C2,39.254834 12.745166,50 26,50 C39.254834,50 50,39.254834 50,26 C50,12.745166 39.254834,2 26,2 Z" id="椭圆形" fill="#FDB83D"></path>
            <path d="M26,27.625 C34.0771645,27.625 40.625,31.2626864 40.625,35.75 C40.625,40.2373136 34.0771645,43.875 26,43.875 C17.9228355,43.875 11.375,40.2373136 11.375,35.75 C11.375,31.2626864 17.9228355,27.625 26,27.625 Z M26,9.75 C30.4873136,9.75 34.125,13.3876864 34.125,17.875 C34.125,22.3623136 30.4873136,26 26,26 C21.5126864,26 17.875,22.3623136 17.875,17.875 C17.875,13.3876864 21.5126864,9.75 26,9.75 Z" id="形状结合" fill="#FDB83D"></path>
        </g>
    </g>
</svg>