<?xml version="1.0" encoding="UTF-8"?>
<svg width="52px" height="52px" viewBox="0 0 52 52" version="1.1" xmlns="http://www.w3.org/2000/svg" xmlns:xlink="http://www.w3.org/1999/xlink">
    <title>宽带资源-千兆楼宇设备</title>
    <g id="图标" stroke="none" stroke-width="1" fill="none" fill-rule="evenodd">
        <g id="宽带资源-千兆楼宇设备">
            <circle id="椭圆形" fill="#FFFFFF" cx="26" cy="26" r="25"></circle>
            <path d="M26,0 C40.3594035,0 52,11.6405965 52,26 C52,40.3594035 40.3594035,52 26,52 C11.6405965,52 0,40.3594035 0,26 C0,11.6405965 11.6405965,0 26,0 Z M26,2 C12.745166,2 2,12.745166 2,26 C2,39.254834 12.745166,50 26,50 C39.254834,50 50,39.254834 50,26 C50,12.745166 39.254834,2 26,2 Z" id="椭圆形" fill="#3377FF"></path>
            <path d="M26,20.5639705 C26.579899,20.5639705 27.0573199,21.0028068 27.1183987,21.5665615 L27.125,21.6891637 L27.125,26.083 L37.4833308,26.0143764 C38.864012,26.0051703 39.9907383,27.1169705 39.9999444,28.4976517 C39.9999815,28.503208 40,28.5087644 40,28.5143208 L40,37.5 C40,38.8807119 38.8807119,40 37.5,40 L14.5,40 C13.1192881,40 12,38.8807119 12,37.5 L12,28.6676805 C12,27.2934739 13.1091548,26.1768988 14.4833308,26.1677361 L24.874,26.098 L24.875,21.6891637 C24.875,21.0677366 25.3786797,20.5639705 26,20.5639705 Z M16.625,31.3735188 C15.7275373,31.3735188 15,32.101181 15,32.9987979 C15,33.8964147 15.7275373,34.6240769 16.625,34.6240769 C17.5224627,34.6240769 18.25,33.8964147 18.25,32.9987979 C18.25,32.101181 17.5224627,31.3735188 16.625,31.3735188 Z M21.875,31.3735188 C20.9775373,31.3735188 20.25,32.101181 20.25,32.9987979 C20.25,33.8964147 20.9775373,34.6240769 21.875,34.6240769 C22.7724627,34.6240769 23.5,33.8964147 23.5,32.9987979 C23.5,32.101181 22.7724627,31.3735188 21.875,31.3735188 Z M27.125,31.3735188 C26.2275373,31.3735188 25.5,32.101181 25.5,32.9987979 C25.5,33.8964147 26.2275373,34.6240769 27.125,34.6240769 C28.0224627,34.6240769 28.75,33.8964147 28.75,32.9987979 C28.75,32.101181 28.0224627,31.3735188 27.125,31.3735188 Z M26,12 C31.3502585,12 35.6875,16.3379863 35.6875,21.6891637 C35.6875,22.7834748 35.506117,23.8354144 35.1717803,24.8165483 L33.3966002,23.7914993 C33.586086,23.1233077 33.6875,22.418081 33.6875,21.6891637 C33.6875,17.4427455 30.245689,14.0003435 26,14.0003435 C21.754311,14.0003435 18.3125,17.4427455 18.3125,21.6891637 C18.3125,22.3823391 18.4042124,23.0540903 18.5761628,23.6929411 L16.7964488,24.7217012 C16.4824078,23.7677322 16.3125,22.7482934 16.3125,21.6891637 C16.3125,16.3379863 20.6497415,12 26,12 Z M26,16.0006869 C29.1411195,16.0006869 31.6875,18.5475047 31.6875,21.6891637 C31.6875,22.0800495 31.648081,22.461727 31.5730021,22.8304364 L29.687136,21.7415207 L29.6875,21.6891637 L29.6875,21.6891637 C29.6875,19.6522639 28.03655,18.0010304 26,18.0010304 C23.96345,18.0010304 22.3125,19.6522639 22.3125,21.6891637 L22.3155,21.7916869 L20.4368166,22.8776269 C20.3553594,22.4943262 20.3125,22.096751 20.3125,21.6891637 C20.3125,18.5475047 22.8588805,16.0006869 26,16.0006869 Z" id="形状结合" fill="#3377FF"></path>
        </g>
    </g>
</svg>