<?xml version="1.0" encoding="UTF-8"?>
<svg width="52px" height="52px" viewBox="0 0 52 52" version="1.1" xmlns="http://www.w3.org/2000/svg" xmlns:xlink="http://www.w3.org/1999/xlink">
    <title>宽带资源-非千兆宽带小区</title>
    <g id="图标" stroke="none" stroke-width="1" fill="none" fill-rule="evenodd">
        <g id="宽带资源-非千兆宽带小区">
            <circle id="椭圆形" fill="#FFFFFF" cx="26" cy="26" r="25"></circle>
            <path d="M26,0 C40.3594035,0 52,11.6405965 52,26 C52,40.3594035 40.3594035,52 26,52 C11.6405965,52 0,40.3594035 0,26 C0,11.6405965 11.6405965,0 26,0 Z M26,2 C12.745166,2 2,12.745166 2,26 C2,39.254834 12.745166,50 26,50 C39.254834,50 50,39.254834 50,26 C50,12.745166 39.254834,2 26,2 Z" id="椭圆形" fill="#1FC0A5"></path>
            <path d="M31,11 C32.1045695,11 33,11.8954305 33,13 L33,19.647 L30,23.529 L30,23 L20,23 L20,25 L28.864,25 L25,30 L20,30 L20,32 L29.056,32 L25,38 L31,38 L31,41 L17,41 L17,13 C17,11.8954305 17.8954305,11 19,11 L31,11 Z M15,19 L15,41 L12,41 L12,21 L15,19 Z M33.5,21 L40,30 L34.944,30 L40,37 L35,37 L35,41 L32,41 L32,37 L27,37 L32.056,30 L27,30 L33.5,21 Z M30,16 L20,16 L20,18 L30,18 L30,16 Z" id="形状结合" fill="#1FC0A5"></path>
        </g>
    </g>
</svg>