<?xml version="1.0" encoding="UTF-8"?>
<svg width="52px" height="52px" viewBox="0 0 52 52" version="1.1" xmlns="http://www.w3.org/2000/svg" xmlns:xlink="http://www.w3.org/1999/xlink">
    <title>渠道-联通自有渠道</title>
    <g id="图标" stroke="none" stroke-width="1" fill="none" fill-rule="evenodd">
        <g id="渠道-联通自有渠道">
            <circle id="椭圆形" fill="#FFFFFF" cx="26" cy="26" r="25"></circle>
            <path d="M26,0 C40.3594035,0 52,11.6405965 52,26 C52,40.3594035 40.3594035,52 26,52 C11.6405965,52 0,40.3594035 0,26 C0,11.6405965 11.6405965,0 26,0 Z M26,2 C12.745166,2 2,12.745166 2,26 C2,39.254834 12.745166,50 26,50 C39.254834,50 50,39.254834 50,26 C50,12.745166 39.254834,2 26,2 Z" id="椭圆形" fill="#D81E06" fill-rule="nonzero"></path>
            <path d="M15.9322861,28.3740377 L14.6044681,29.6269787 C13.6775681,30.4867966 12.4248861,31.0273377 11.0466271,31.0273377 C8.21574508,31.0273377 5.91061148,28.7671556 5.91061148,25.9664377 C5.91061148,23.1904197 8.21577047,20.9302377 11.0466271,20.9302377 C12.3996681,20.9302377 13.5772091,21.4460787 14.5041091,22.2814556 L14.7547491,22.5024556 L15.9073312,23.6324146 L15.9322912,23.6079746 L18.4126912,21.2497746 L20.8429091,23.7309566 L18.4124271,26.0155746 L20.7927271,28.3001926 L18.4124271,30.7077926 L15.9572451,28.3495926 L15.9322861,28.3740377 Z M28.4590668,40.0186516 L28.4088868,39.9697716 L26.5049048,38.2251716 L26.4799448,38.2251716 L24.6760627,39.9203716 L24.6258827,39.9697716 C23.7038394,40.7151538 22.5545103,41.1226072 21.3688648,41.1244336 C18.5379827,41.1244336 16.2328491,38.8642485 16.2328491,36.0882305 C16.2328491,34.7861485 16.7338691,33.6067895 17.5609312,32.6978305 L17.6108512,32.6242505 L24.1498512,25.9908482 L17.6108512,19.3088482 C16.7840512,18.3998892 16.2830332,17.2205302 16.2830332,15.9184482 C16.2830332,13.1424302 18.5879332,10.8822482 21.4193535,10.8822482 C22.6717715,10.8822482 23.8243535,11.3242482 24.7010715,12.0366482 L24.7512515,12.0860482 L26.5553925,13.7812482 L28.4591105,12.0366482 L28.5095505,12.0122082 C29.4232533,11.292662 30.5533845,10.9031548 31.7163915,10.9069492 C34.5472735,10.9069492 36.8524071,13.1668672 36.8524071,15.9431492 C36.8524071,17.2205313 36.3763471,18.3998902 35.5745071,19.2841492 L35.5243271,19.3577292 L28.9351552,25.9908269 L31.6157552,28.7179679 L31.7163752,28.8159879 L35.4491932,32.7222289 L35.5492932,32.7469289 C36.3261752,33.6558879 36.8274522,34.8105469 36.8274522,36.0879289 C36.8274522,38.8642109 34.5222932,41.1244336 31.6664522,41.1244336 C30.5038868,41.1239532 29.3748973,40.7347183 28.4590668,40.0186516 Z M38.4056004,29.6514055 L37.0528184,28.3740234 L37.0023784,28.4231634 L34.5973784,30.7569224 L32.2173373,28.3493224 L34.5973784,26.0647045 L34.5721584,26.0402645 L32.1923763,23.7553824 L34.6225943,21.2986414 L34.7226943,21.4216214 L37.0528123,23.6324034 L37.0777723,23.6571034 L38.2300902,22.5271445 L38.4807302,22.3305845 C39.4076302,21.4952024 40.5851713,20.9793665 41.9379482,20.9793665 C44.7693482,20.9793665 47.0739638,23.2395485 47.0992021,26.0155665 C47.0992021,28.7915845 44.7943021,31.0517666 41.9634404,31.0517666 C40.5854414,31.0520234 39.3325004,30.5112234 38.4056004,29.6514055 Z M33.3696411,15.9431492 C33.3696411,15.0339313 32.6182411,14.2723902 31.6661231,14.2723902 C31.2152831,14.2723902 30.8141052,14.4195502 30.5135411,14.7143902 L29.1857231,16.0167313 L29.1605031,16.0414313 L31.0647441,17.8593492 L28.5094621,20.4632492 L26.4799031,18.4979082 L24.4506031,20.4141082 L21.8950621,17.8593492 L23.9243621,16.1147492 L22.4215621,14.6410672 L22.3963421,14.6166272 C22.0924215,14.3902451 21.7228143,14.2694474 21.3438601,14.2726472 C20.4169601,14.2726472 19.6403421,15.0094882 19.6403421,15.9431472 C19.6403421,16.3607072 19.7906221,16.7291292 20.0412621,17.0239652 L26.4799184,23.5834808 L32.8686566,17.1469066 C33.1944011,16.8274092 33.3696411,16.4098492 33.3696411,15.9431492 Z M19.9910547,35.0318516 C19.7404147,35.3264316 19.5901347,35.6948516 19.5901347,36.1126695 C19.5901347,37.0213695 20.3415347,37.7831721 21.2936527,37.7831721 C21.6945727,37.7831721 22.0702706,37.6604495 22.3458706,37.4391895 L23.8744116,35.9652485 L21.8448527,34.1717665 L24.3504706,31.5923075 L26.3548116,33.5085075 L26.3797716,33.5332075 L28.4090716,31.5187255 L30.9895716,34.1473255 L29.1105537,35.9899434 L29.0855937,36.0143834 L30.4383757,37.3409014 C30.7543622,37.6262648 31.1651888,37.7839041 31.5909577,37.7831721 C32.5428167,37.7831721 33.3194398,37.0463204 33.3194398,36.1126614 C33.3194398,35.6459614 33.1192398,35.2281434 32.8184198,34.9088614 L26.4296815,28.4720313 L19.9910547,35.0318516 Z M40.9358727,24.6887692 C40.8357727,24.7626092 40.8108127,24.7873092 40.8108127,24.7873092 L39.5329127,26.0155502 L40.8108127,27.2929323 C41.0864127,27.5386323 41.4873306,27.7104923 41.9379127,27.7104923 C42.8650716,27.7104923 43.6416947,26.9492102 43.6669133,26.0399923 C43.6671967,25.5888667 43.4875436,25.1562582 43.1677699,24.8380458 C42.8479961,24.5198335 42.4145134,24.3423 41.9633947,24.3447923 C41.5874306,24.3450492 41.2117316,24.4677692 40.9358727,24.6887692 Z M11.0718309,24.2959458 C10.1197129,24.2959458 9.34283086,25.0327868 9.34283086,25.9664458 C9.34283086,26.8998458 10.1197129,27.6616458 11.0718309,27.6616458 C11.4977109,27.6616458 11.8986309,27.5142258 12.1991898,27.2440858 L13.4768309,25.9664448 L12.3744309,24.9100627 C12.2953072,24.8078874 12.2026818,24.7169238 12.0990909,24.6396627 C11.7982698,24.4189258 11.4475309,24.2959458 11.0718309,24.2959458 Z" id="形状" fill="#D81E06" fill-rule="nonzero"></path>
        </g>
    </g>
</svg>