<?xml version="1.0" encoding="UTF-8"?>
<svg width="52px" height="52px" viewBox="0 0 52 52" version="1.1" xmlns="http://www.w3.org/2000/svg" xmlns:xlink="http://www.w3.org/1999/xlink">
    <title>基站-自建5G基站</title>
    <g id="图标" stroke="none" stroke-width="1" fill="none" fill-rule="evenodd">
        <g id="基站-自建5G基站">
            <circle id="椭圆形" fill="#FFFFFF" cx="26" cy="26" r="26"></circle>
            <path d="M26,0 C40.3594035,0 52,11.6405965 52,26 C52,40.3594035 40.3594035,52 26,52 C11.6405965,52 0,40.3594035 0,26 C0,11.6405965 11.6405965,0 26,0 Z M26,2 C12.745166,2 2,12.745166 2,26 C2,39.254834 12.745166,50 26,50 C39.254834,50 50,39.254834 50,26 C50,12.745166 39.254834,2 26,2 Z" id="椭圆形" fill="#0058B2" fill-rule="nonzero"></path>
            <path d="M27.1836311,27.3582519 C27.5530209,27.5330398 27.8594202,27.8151139 28.0640703,28.1657154 L28.145435,28.3200558 L35.5756526,44.022783 C35.8827386,44.6717663 35.605576,45.4468137 34.9565927,45.7538996 C34.3481708,46.0417928 33.6289505,45.8161862 33.2883936,45.252115 L33.2254761,45.1348397 L31.7175502,41.9498846 L31.6524353,41.9529127 L21.4123829,41.9529127 C21.2527094,41.9529127 21.0997594,41.9241256 20.9584398,41.8714581 L19.4140365,45.1348397 C19.1261434,45.7432616 18.4269561,46.0248879 17.8059365,45.8046835 L17.6829198,45.7538996 C17.0744979,45.4660065 16.7928717,44.7668193 17.0130761,44.1457997 L17.0638599,44.022783 L24.4940776,28.3200558 C24.9711824,27.3117613 26.1753366,26.881147 27.1836311,27.3582519 Z M23.2592222,37.0077579 L22.1485502,39.3528846 L30.4895502,39.3528846 L29.3975502,37.0448846 L23.5716272,37.0455394 C23.4639317,37.0455394 23.3592948,37.0324437 23.2592222,37.0077579 Z M26.32,30.54 L24.4715502,34.4448846 L28.1675502,34.4448846 L26.32,30.54 Z M14.4586773,10.8423698 C15.0090543,11.3034191 15.0814687,12.123342 14.6204195,12.6737189 C12.4215225,15.2986495 11.1611163,18.5783731 11.0707311,22.0508809 L11.0655076,22.4523841 L11.0675972,22.7155949 C11.1249714,26.2542695 12.3912589,29.59129 14.6208487,32.2526245 C15.0819219,32.8029814 15.0095432,33.6229075 14.4591863,34.0839807 C13.9088294,34.5450539 13.0889034,34.4726752 12.6278302,33.9223183 C10.112031,30.9193518 8.64248579,27.1762216 8.48042372,23.1909771 L8.46781069,22.7472011 L8.46555024,22.4629156 C8.46555024,18.2153671 9.95535907,14.193772 12.6273282,11.004112 C13.0883774,10.4537351 13.9083004,10.3813206 14.4586773,10.8423698 Z M40.0121843,11.004112 C42.6841535,14.193772 44.1739623,18.2153671 44.1739623,22.4629156 C44.1739623,26.7107356 42.6839621,30.7325698 40.0116824,33.9223183 C39.5506092,34.4726752 38.7306831,34.5450539 38.1803262,34.0839807 C37.6299694,33.6229075 37.5575907,32.8029814 38.0186639,32.2526245 C40.3023996,29.526659 41.5739623,26.094435 41.5739623,22.4629156 C41.5739623,18.8316282 40.302563,15.3996084 38.0190931,12.6737189 C37.5580438,12.123342 37.6304583,11.3034191 38.1808352,10.8423698 C38.7312122,10.3813206 39.5511351,10.4537351 40.0121843,11.004112 Z M19.4273857,14.9988904 C19.9777163,15.4599949 20.0500483,16.2799251 19.5889437,16.8302557 C18.3476785,18.3117119 17.6263465,20.154752 17.549964,22.1037067 L17.5432052,22.4486873 L17.5454341,22.6594639 C17.5896377,24.6768898 18.3166097,26.5768294 19.5885591,28.0951164 C20.0496264,28.6454783 19.9772388,29.4654036 19.4268769,29.9264708 C18.8765151,30.387538 18.0565898,30.3151504 17.5955226,29.7647886 C16.0258916,27.8911682 15.0948358,25.5639804 14.96005,23.0764629 L14.9458239,22.7021695 L14.943283,22.4629156 C14.943283,19.7564789 15.893137,17.1928482 17.5960204,15.1604484 C18.0571249,14.6101178 18.8770551,14.5377858 19.4273857,14.9988904 Z M35.0441721,15.1612599 C36.7466348,17.19354 37.6962295,19.756847 37.6962295,22.4629156 C37.6962295,25.1690828 36.7465654,27.7324764 35.04399,29.7647886 C34.5829227,30.3151504 33.7629975,30.387538 33.2126356,29.9264708 C32.6622737,29.4654036 32.5898862,28.6454783 33.0509534,28.0951164 C34.3649959,26.5265841 35.0962295,24.5527919 35.0962295,22.4629156 C35.0962295,20.3731152 34.3650494,18.39939 33.0510941,16.8308827 C32.5900405,16.2805094 32.6624484,15.4605859 33.2128217,14.9995323 C33.763195,14.5384787 34.5831185,14.6108866 35.0441721,15.1612599 Z M24.8702281,20.0096251 L24.8702281,21.1144231 L22.515264,21.1144231 L22.515264,22.4684236 L22.6818605,22.4522716 C22.7969244,22.4436572 22.9199874,22.43935 23.0510495,22.43935 C23.6962072,22.43935 24.2098413,22.6110228 24.5919519,22.9543686 C24.9740625,23.2977143 25.1651178,23.7684302 25.1651178,24.3665164 C25.1651178,25.0365943 24.9415277,25.5689187 24.4943476,25.9634894 C24.0471674,26.3580601 23.4525425,26.5553454 22.7104726,26.5553454 C22.0902352,26.5553454 21.5779855,26.4625867 21.1737236,26.2770692 L21.1737236,26.2770692 L21.1737236,25.114124 L21.3659655,25.2232137 C21.7528228,25.42461 22.1539203,25.5253082 22.5692579,25.5253082 C22.9458306,25.5253082 23.2448737,25.4325495 23.466387,25.247032 C23.6879004,25.0615146 23.7986571,24.8067742 23.7986571,24.4828109 C23.7986571,23.8182707 23.3376324,23.4860007 22.415583,23.4860007 C22.1386912,23.4860007 21.7870387,23.5109209 21.3606255,23.5607614 L21.3606255,23.5607614 L21.3606255,20.0096251 L24.8702281,20.0096251 Z M29.5843097,19.9016373 C30.2710012,19.9016373 30.8704718,19.9985494 31.3827214,20.1923736 L31.3827214,20.1923736 L31.3827214,21.4923803 L31.1906278,21.3901683 C30.7302953,21.1675733 30.1851647,21.0562758 29.5552361,21.0562758 C28.9349986,21.0562758 28.4324401,21.2584067 28.0475606,21.6626687 C27.6626811,22.0669306 27.4702414,22.5999472 27.4702414,23.2617184 C27.4702414,23.9345653 27.6439909,24.4592751 27.9914901,24.8358478 C28.3389892,25.2124206 28.8131662,25.4007069 29.4140213,25.4007069 C29.7712116,25.4007069 30.0633324,25.3453286 30.2903836,25.2345719 L30.2903836,25.2345719 L30.2903836,23.9137984 L28.9903769,23.9137984 L28.9903769,22.8131538 L31.6609976,22.8131538 L31.6609976,26.0112532 L31.4461502,26.1254454 C30.859003,26.4120454 30.1580909,26.5553454 29.3434139,26.5553454 C28.3189145,26.5553454 27.5103907,26.267378 26.9178424,25.6914433 C26.3252941,25.1155085 26.02902,24.3277515 26.02902,23.3281724 C26.02902,22.3147487 26.35506,21.4903036 27.00714,20.8548371 C27.65922,20.2193706 28.5182766,19.9016373 29.5843097,19.9016373 Z M30.3275688,12.4598058 L30.3275688,12.9285558 L31.81585,12.9285558 L31.81585,13.8426183 L32.1732719,13.8426183 L32.1732719,14.4402746 L31.81585,14.4402746 L31.81585,15.289884 L30.3275688,15.289884 L30.3275688,15.6004308 L31.81585,15.6004308 L31.81585,16.1394933 L30.3275688,16.1394933 L30.3275688,16.4558996 L32.0150688,16.4558996 L32.0150688,16.9891027 L30.3275688,16.9891027 L30.3275688,17.3553137 L32.2435844,17.3289465 L32.175225,17.5646236 C32.1309542,17.7252138 32.0892875,17.8927486 32.050225,18.0672277 L32.050225,18.0672277 L29.6068656,18.0672277 L29.3729026,18.0639318 C28.8433311,18.048551 28.4281547,17.9793371 28.1273735,17.8562902 C27.7836235,17.7156652 27.5404594,17.5818762 27.3978813,17.454923 C27.1888969,17.751798 26.94085,18.0144933 26.6537406,18.243009 C26.5873344,17.9734777 26.5053031,17.7019933 26.4076469,17.4285558 C26.5951469,17.2644933 26.7592094,17.0828527 26.8998344,16.883634 C26.7103813,16.5848058 26.5482719,16.2156652 26.4135063,15.7762121 L26.4135063,15.7762121 L27.0170219,15.5125402 L27.0990531,15.7491939 C27.1550427,15.9006696 27.2136365,16.0395585 27.2748344,16.1658605 C27.3705375,15.9119543 27.4388969,15.6375402 27.4799125,15.3426183 L27.4799125,15.3426183 L26.6010063,15.3426183 L26.6010063,14.5808996 L27.2806938,13.6082433 L26.4838188,13.6082433 L26.4838188,12.8933996 L28.1830375,12.8933996 L28.1830375,13.5672277 L27.4096,14.6277746 L28.1947563,14.6277746 L28.1947563,15.3543371 L28.1367485,15.6824621 C28.0492485,16.1105871 27.9211235,16.5012121 27.7523735,16.8543371 C28.1058891,17.1902746 28.7142875,17.3582433 29.5775688,17.3582433 L29.5775688,17.3582433 L29.5775688,16.9891027 L28.2650688,16.9891027 L28.2650688,16.4558996 L29.5775688,16.4558996 L29.5775688,16.1394933 L28.4642875,16.1394933 L28.4642875,15.6004308 L29.5775688,15.6004308 L29.5775688,15.289884 L28.5463188,15.289884 L28.5463188,14.7801183 L29.5775688,14.7801183 L29.5775688,14.4402746 L28.2416313,14.4402746 L28.2416313,13.8426183 L29.5775688,13.8426183 L29.5775688,13.5027746 L28.5463188,13.5027746 L28.5463188,12.9285558 L29.5775688,12.9285558 L29.5775688,12.4598058 L30.3275688,12.4598058 Z M22.7455375,12.4363683 L23.7123344,12.571134 L23.4808891,13.1570715 L25.7103813,13.1570715 L25.7103813,18.2195715 L24.8666313,18.2195715 L24.8666313,17.868009 L21.7904594,17.868009 L21.7904594,18.2254308 L20.9467094,18.2254308 L20.9467094,13.1570715 L22.572686,13.1570715 L22.6263359,12.9560217 C22.6765068,12.7619299 22.7162406,12.5887121 22.7455375,12.4363683 L22.7455375,12.4363683 Z M24.8666313,16.5262121 L21.7904594,16.5262121 L21.7904594,17.1004308 L24.8666313,17.1004308 L24.8666313,16.5262121 Z M24.8666313,15.2254308 L21.7904594,15.2254308 L21.7904594,15.7937902 L24.8666313,15.7937902 L24.8666313,15.2254308 Z M31.1244438,14.4402746 L30.3275688,14.4402746 L30.3275688,14.7801183 L31.1244438,14.7801183 L31.1244438,14.4402746 Z M24.8666313,13.9246496 L21.7904594,13.9246496 L21.7904594,14.493009 L24.8666313,14.493009 L24.8666313,13.9246496 Z M31.1244438,13.5027746 L30.3275688,13.5027746 L30.3275688,13.8426183 L31.1244438,13.8426183 L31.1244438,13.5027746 Z" id="形状结合" fill="#0058B2" fill-rule="nonzero"></path>
        </g>
    </g>
</svg>