<?xml version="1.0" encoding="UTF-8"?>
<svg width="52px" height="52px" viewBox="0 0 52 52" version="1.1" xmlns="http://www.w3.org/2000/svg" xmlns:xlink="http://www.w3.org/1999/xlink">
    <title>基站-共享5G基站</title>
    <g id="图标" stroke="none" stroke-width="1" fill="none" fill-rule="evenodd">
        <g id="基站-共享5G基站">
            <circle id="椭圆形" fill="#FFFFFF" cx="26" cy="26" r="25"></circle>
            <path d="M26,0 C40.3594035,0 52,11.6405965 52,26 C52,40.3594035 40.3594035,52 26,52 C11.6405965,52 0,40.3594035 0,26 C0,11.6405965 11.6405965,0 26,0 Z M26,2 C12.745166,2 2,12.745166 2,26 C2,39.254834 12.745166,50 26,50 C39.254834,50 50,39.254834 50,26 C50,12.745166 39.254834,2 26,2 Z" id="椭圆形" fill="#0058B2" fill-rule="nonzero"></path>
            <path d="M27.1836311,27.3582519 C27.5530209,27.5330398 27.8594202,27.8151139 28.0640703,28.1657154 L28.145435,28.3200558 L35.5756526,44.022783 C35.8827386,44.6717663 35.605576,45.4468137 34.9565927,45.7538996 C34.3481708,46.0417928 33.6289505,45.8161862 33.2883936,45.252115 L33.2254761,45.1348397 L31.7175502,41.9498846 L31.6524353,41.9529127 L21.4123829,41.9529127 C21.2527094,41.9529127 21.0997594,41.9241256 20.9584398,41.8714581 L19.4140365,45.1348397 C19.1261434,45.7432616 18.4269561,46.0248879 17.8059365,45.8046835 L17.6829198,45.7538996 C17.0744979,45.4660065 16.7928717,44.7668193 17.0130761,44.1457997 L17.0638599,44.022783 L24.4940776,28.3200558 C24.9711824,27.3117613 26.1753366,26.881147 27.1836311,27.3582519 Z M23.2592222,37.0077579 L22.1485502,39.3528846 L30.4895502,39.3528846 L29.3975502,37.0448846 L23.5716272,37.0455394 C23.4639317,37.0455394 23.3592948,37.0324437 23.2592222,37.0077579 Z M26.32,30.54 L24.4715502,34.4448846 L28.1675502,34.4448846 L26.32,30.54 Z M14.4586773,10.8423698 C15.0090543,11.3034191 15.0814687,12.123342 14.6204195,12.6737189 C12.4215225,15.2986495 11.1611163,18.5783731 11.0707311,22.0508809 L11.0655076,22.4523841 L11.0675972,22.7155949 C11.1249714,26.2542695 12.3912589,29.59129 14.6208487,32.2526245 C15.0819219,32.8029814 15.0095432,33.6229075 14.4591863,34.0839807 C13.9088294,34.5450539 13.0889034,34.4726752 12.6278302,33.9223183 C10.112031,30.9193518 8.64248579,27.1762216 8.48042372,23.1909771 L8.46781069,22.7472011 L8.46555024,22.4629156 C8.46555024,18.2153671 9.95535907,14.193772 12.6273282,11.004112 C13.0883774,10.4537351 13.9083004,10.3813206 14.4586773,10.8423698 Z M40.0121843,11.004112 C42.6841535,14.193772 44.1739623,18.2153671 44.1739623,22.4629156 C44.1739623,26.7107356 42.6839621,30.7325698 40.0116824,33.9223183 C39.5506092,34.4726752 38.7306831,34.5450539 38.1803262,34.0839807 C37.6299694,33.6229075 37.5575907,32.8029814 38.0186639,32.2526245 C40.3023996,29.526659 41.5739623,26.094435 41.5739623,22.4629156 C41.5739623,18.8316282 40.302563,15.3996084 38.0190931,12.6737189 C37.5580438,12.123342 37.6304583,11.3034191 38.1808352,10.8423698 C38.7312122,10.3813206 39.5511351,10.4537351 40.0121843,11.004112 Z M19.4273857,14.9988904 C19.9777163,15.4599949 20.0500483,16.2799251 19.5889437,16.8302557 C18.3476785,18.3117119 17.6263465,20.154752 17.549964,22.1037067 L17.5432052,22.4486873 L17.5454341,22.6594639 C17.5896377,24.6768898 18.3166097,26.5768294 19.5885591,28.0951164 C20.0496264,28.6454783 19.9772388,29.4654036 19.4268769,29.9264708 C18.8765151,30.387538 18.0565898,30.3151504 17.5955226,29.7647886 C16.0258916,27.8911682 15.0948358,25.5639804 14.96005,23.0764629 L14.9458239,22.7021695 L14.943283,22.4629156 C14.943283,19.7564789 15.893137,17.1928482 17.5960204,15.1604484 C18.0571249,14.6101178 18.8770551,14.5377858 19.4273857,14.9988904 Z M35.0441721,15.1612599 C36.7466348,17.19354 37.6962295,19.756847 37.6962295,22.4629156 C37.6962295,25.1690828 36.7465654,27.7324764 35.04399,29.7647886 C34.5829227,30.3151504 33.7629975,30.387538 33.2126356,29.9264708 C32.6622737,29.4654036 32.5898862,28.6454783 33.0509534,28.0951164 C34.3649959,26.5265841 35.0962295,24.5527919 35.0962295,22.4629156 C35.0962295,20.3731152 34.3650494,18.39939 33.0510941,16.8308827 C32.5900405,16.2805094 32.6624484,15.4605859 33.2128217,14.9995323 C33.763195,14.5384787 34.5831185,14.6108866 35.0441721,15.1612599 Z M26,18 C28.209139,18 30,19.790861 30,22 C30,24.209139 28.209139,26 26,26 C23.790861,26 22,24.209139 22,22 C22,19.790861 23.790861,18 26,18 Z" id="形状结合" fill="#0058B2" fill-rule="nonzero"></path>
        </g>
    </g>
</svg>