<?xml version="1.0" encoding="UTF-8"?>
<svg width="52px" height="52px" viewBox="0 0 52 52" version="1.1" xmlns="http://www.w3.org/2000/svg" xmlns:xlink="http://www.w3.org/1999/xlink">
    <title>用户-单宽用户-图例</title>
    <g id="图标" stroke="none" stroke-width="1" fill="none" fill-rule="evenodd">
        <g id="用户-单宽用户-图例">
            <circle id="椭圆形" fill="#FFFFFF" cx="26" cy="26" r="25"></circle>
            <path d="M26,0 C40.3594035,0 52,11.6405965 52,26 C52,40.3594035 40.3594035,52 26,52 C11.6405965,52 0,40.3594035 0,26 C0,11.6405965 11.6405965,0 26,0 Z M26,2 C12.745166,2 2,12.745166 2,26 C2,39.254834 12.745166,50 26,50 C39.254834,50 50,39.254834 50,26 C50,12.745166 39.254834,2 26,2 Z" id="椭圆形" fill="#FF8B3F"></path>
            <path d="M32.5,27.875 C36.0898509,27.875 39,30.8131313 39,34.4375 L39,39.125 C39,40.1605339 38.1685288,41 37.1428571,41 L14.8571429,41 C13.8314712,41 13,40.1605339 13,39.125 L13,34.4375 C13,30.8131313 15.9101491,27.875 19.5,27.875 L21.7434286,27.876875 C23.078767,28.4952758 24.5308863,28.8144621 26,28.8125 C27.4691137,28.8144621 28.921233,28.4952758 30.2565714,27.876875 L32.5,27.875 Z M26,11 C30.1026867,11 33.4285714,14.3578644 33.4285714,18.5 C33.4285714,22.6421356 30.1026867,26 26,26 C21.8973133,26 18.5714286,22.6421356 18.5714286,18.5 C18.5714286,14.3578644 21.8973133,11 26,11 Z" id="形状" fill="#FF8B3F"></path>
        </g>
    </g>
</svg>