<?xml version="1.0" encoding="utf-8"?>
<!-- Generator: Adobe Illustrator 24.2.0, SVG Export Plug-In . SVG Version: 6.00 Build 0)  -->
<svg version="1.1" id="图层_1" xmlns="http://www.w3.org/2000/svg" xmlns:xlink="http://www.w3.org/1999/xlink" x="0px" y="0px"
	 viewBox="0 0 277.8 277.8" style="enable-background:new 0 0 277.8 277.8;" xml:space="preserve">
<style type="text/css">
	.st0{fill:#DAEBFF;}
	.st1{fill:#B0D8FF;}
	.st2{fill:#EBF5FF;}
	.st3{fill:#D3E2F9;}
	.st4{fill:#D1E3FF;}
	.st5{fill:#F5FCFF;}
	.st6{fill:#006DFE;}
	.st7{fill:url(#SVGID_1_);}
	.st8{fill:#FFFFFF;}
	.st9{fill:#00B77B;}
	.st10{fill:#0ACE68;}
	.st11{fill:#153077;}
	.st12{fill:#FEA587;}
	.st13{fill:#0E2354;}
	.st14{clip-path:url(#SVGID_3_);fill:#141F72;}
	.st15{clip-path:url(#SVGID_5_);fill:#141F72;}
	.st16{clip-path:url(#SVGID_7_);fill:#EA756C;}
	.st17{fill:#1E2889;}
	.st18{fill:#0054FC;}
	.st19{fill:#EA756C;}
	.st20{fill:#FFACA6;}
	.st21{clip-path:url(#XMLID_20_);fill:#084684;}
	.st22{clip-path:url(#SVGID_9_);fill:#EA756C;}
	.st23{clip-path:url(#SVGID_11_);fill:#1E2889;}
	.st24{fill:#E3EEFF;}
	.st25{fill:#E2EEFF;}
	.st26{clip-path:url(#XMLID_21_);fill:#06438C;}
	.st27{clip-path:url(#XMLID_21_);fill:#115FBC;}
	.st28{clip-path:url(#SVGID_13_);fill:#EA756C;}
	.st29{clip-path:url(#SVGID_15_);fill:#EA756C;}
	.st30{clip-path:url(#SVGID_17_);fill:#FE8E00;}
	.st31{opacity:0.35;clip-path:url(#SVGID_19_);fill:#393D3C;}
	.st32{fill:#273263;}
	.st33{clip-path:url(#SVGID_21_);fill:#053FA5;}
	.st34{fill:#0542BF;}
	.st35{fill:#2B3568;}
	.st36{fill:#0A0D26;}
	.st37{fill:#191E56;}
	.st38{clip-path:url(#SVGID_23_);fill:#172375;}
	.st39{fill:#FC8300;}
	.st40{clip-path:url(#SVGID_25_);fill:#FF9E22;}
	.st41{fill:#FE8E00;}
	.st42{clip-path:url(#SVGID_27_);fill:#EA756C;}
	.st43{clip-path:url(#SVGID_29_);fill:#172272;}
	.st44{clip-path:url(#SVGID_31_);fill:#EA756C;}
	.st45{opacity:0.35;clip-path:url(#SVGID_33_);fill:#393D3C;}
	.st46{clip-path:url(#SVGID_35_);fill:#053FA5;}
	.st47{fill:none;}
	.st48{fill:#053FA5;}
</style>
<g>
	<g>
		<g>
			<rect x="214.14" y="108.53" class="st0" width="56.48" height="1.4"/>
			<rect x="220.99" y="109.68" class="st0" width="1.02" height="6.72"/>
			<rect x="262.42" y="109.68" class="st0" width="1.02" height="6.72"/>
		</g>
		<g>
			<rect x="220.79" y="99.18" class="st1" width="3.26" height="9.79"/>
			<rect x="224.55" y="99.18" class="st1" width="3.26" height="9.79"/>
			<rect x="228.32" y="99.18" class="st1" width="3.26" height="9.79"/>
			<rect x="232.08" y="99.18" class="st1" width="3.26" height="9.79"/>
			<rect x="235.85" y="99.18" class="st1" width="3.26" height="9.79"/>
			<rect x="239.61" y="99.18" class="st1" width="3.26" height="9.79"/>
		</g>
		<rect x="246.23" y="88.79" class="st1" width="21.97" height="20.08"/>
		<rect x="248.11" y="90.51" class="st0" width="18.19" height="16.63"/>
		<circle class="st2" cx="257.15" cy="98.87" r="4.53"/>
	</g>
	<ellipse class="st0" cx="51.01" cy="217.13" rx="23.4" ry="5.85"/>
	<ellipse class="st0" cx="89.11" cy="210.02" rx="20.2" ry="5.05"/>
	<ellipse class="st0" cx="183.1" cy="210.6" rx="13.99" ry="4.85"/>
	<ellipse class="st0" cx="207.15" cy="214.61" rx="13.99" ry="4.85"/>
	<rect x="17.71" y="201.3" class="st3" width="208.75" height="1.66"/>
	<g>
		<g>
			<g>
				<rect x="227.31" y="144.54" class="st2" width="46.23" height="61.65"/>
				<rect x="229.72" y="147.04" class="st4" width="41.34" height="14.37"/>
				<rect x="229.72" y="163.92" class="st4" width="41.34" height="14.37"/>
				<rect x="229.72" y="181.32" class="st4" width="41.34" height="14.37"/>
				<path class="st5" d="M251.86,150.12c0,0.84-0.64,1.52-1.43,1.52c-0.79,0-1.43-0.68-1.43-1.52c0-0.84,0.64-1.52,1.43-1.52
					C251.22,148.6,251.86,149.28,251.86,150.12z"/>
				<path class="st5" d="M251.86,166.94c0,0.84-0.64,1.52-1.43,1.52c-0.79,0-1.43-0.68-1.43-1.52c0-0.84,0.64-1.52,1.43-1.52
					C251.22,165.42,251.86,166.1,251.86,166.94z"/>
				<path class="st5" d="M251.86,184.21c0,0.84-0.64,1.52-1.43,1.52c-0.79,0-1.43-0.68-1.43-1.52c0-0.84,0.64-1.52,1.43-1.52
					C251.22,182.69,251.86,183.37,251.86,184.21z"/>
			</g>
			<rect x="217.17" y="144.54" class="st4" width="11.08" height="61.65"/>
		</g>
	</g>
	<path class="st1" d="M204.74,78.13H84.33c-2.72,0-4.93,2.21-4.93,4.93v7.68v79.7c0,2.72,2.21,4.93,4.93,4.93h120.4
		c2.72,0,4.93-2.21,4.93-4.93v-79.7v-7.68C209.66,80.33,207.46,78.13,204.74,78.13z"/>
	<g>
		<g>
			<path class="st6" d="M203.12,80.29H84.27c-2.69,0-4.86,2.18-4.86,4.86v7.59h128.58v-7.59C207.98,82.47,205.81,80.29,203.12,80.29
				z"/>
			<linearGradient id="SVGID_1_" gradientUnits="userSpaceOnUse" x1="79.4053" y1="134.5245" x2="207.9841" y2="134.5245">
				<stop  offset="0" style="stop-color:#B0D8FF"/>
				<stop  offset="0.0154" style="stop-color:#B3D9FF"/>
				<stop  offset="0.145" style="stop-color:#C4E1FF"/>
				<stop  offset="0.3014" style="stop-color:#D1E7FF"/>
				<stop  offset="0.5117" style="stop-color:#D8EAFF"/>
				<stop  offset="1" style="stop-color:#DAEBFF"/>
			</linearGradient>
			<path class="st7" d="M79.41,92.74v78.7c0,2.69,2.18,4.86,4.86,4.86h118.85c2.69,0,4.86-2.18,4.86-4.86v-78.7H79.41z"/>
		</g>
		<g>
			<path class="st8" d="M132.69,104.05H89.85c-0.65,0-1.17-0.53-1.17-1.17v-0.52c0-0.65,0.53-1.17,1.17-1.17h42.85
				c0.65,0,1.17,0.53,1.17,1.17v0.52C133.87,103.53,133.34,104.05,132.69,104.05z"/>
			<path class="st8" d="M132.69,110.27H89.85c-0.65,0-1.17-0.53-1.17-1.17v-0.52c0-0.65,0.53-1.17,1.17-1.17h42.85
				c0.65,0,1.17,0.53,1.17,1.17v0.52C133.87,109.75,133.34,110.27,132.69,110.27z"/>
			<path class="st8" d="M132.69,116.5H89.85c-0.65,0-1.17-0.53-1.17-1.17v-0.52c0-0.65,0.53-1.17,1.17-1.17h42.85
				c0.65,0,1.17,0.53,1.17,1.17v0.52C133.87,115.97,133.34,116.5,132.69,116.5z"/>
			<path class="st8" d="M132.69,122.72H89.85c-0.65,0-1.17-0.53-1.17-1.17v-0.52c0-0.65,0.53-1.17,1.17-1.17h42.85
				c0.65,0,1.17,0.53,1.17,1.17v0.52C133.87,122.19,133.34,122.72,132.69,122.72z"/>
			<path class="st8" d="M132.69,128.94H89.85c-0.65,0-1.17-0.53-1.17-1.17v-0.52c0-0.65,0.53-1.17,1.17-1.17h42.85
				c0.65,0,1.17,0.53,1.17,1.17v0.52C133.87,128.41,133.34,128.94,132.69,128.94z"/>
		</g>
		<g>
			<path class="st8" d="M198.57,165.14h-64.98c-0.71,0-1.29-0.58-1.29-1.29v-26.27c0-0.71,0.58-1.29,1.29-1.29h64.98
				c0.71,0,1.29,0.58,1.29,1.29v26.27C199.86,164.56,199.28,165.14,198.57,165.14z"/>
			<path class="st0" d="M198.05,151.74v10.96c0,0.49-0.4,0.88-0.89,0.88h-62.41c-0.49,0-0.89-0.4-0.89-0.88v-24.08
				c5.76,0,8.63,2.15,10.32,4.99c0.11,0.18,0.21,0.37,0.31,0.55c2.85,5.39,1.99,12.77,8.25,12.77c0.23,0,0.45-0.03,0.66-0.08
				c0.13-0.03,0.26-0.07,0.39-0.13c4.21-1.77,3.55-14.36,11.04-14.27c1.6,0.02,2.8,0.63,3.74,1.61c0.09,0.1,0.18,0.2,0.27,0.3
				c3.35,3.94,3.4,12.71,8.55,14.3c1.86,0.57,3.5-0.2,5.12-1.49c0.1-0.08,0.21-0.17,0.31-0.26c3.42-2.84,6.83-7.7,12.11-6.51
				c0.15,0.04,0.31,0.07,0.46,0.12C196.23,150.77,197.11,151.16,198.05,151.74z"/>
			<path class="st9" d="M198.05,149.52c-1.12,0.02-1.98,0.39-2.67,1c-1.27,1.13-1.96,3.05-2.63,4.94c-1,2.82-2.04,5.73-5.06,5.73
				c-0.16,0-0.33-0.01-0.5-0.02c-1.97-0.19-3.42-1.8-4.7-3.99c-0.79-1.36-1.52-2.95-2.26-4.58c-2.09-4.59-4.26-9.33-8.24-9.44
				c-0.05,0-0.09,0-0.13,0c-1.21,0-2.19,0.46-3.03,1.22c-1.69,1.54-2.76,4.31-3.81,7.02c-1.55,4.01-3.16,8.17-6.78,8.25
				c-2.6,0.06-3.79-0.93-4.85-2.79c-0.41-0.72-0.8-1.58-1.25-2.56c-0.82-1.79-1.84-4.02-3.53-6.62c-1.14-1.74-2.58-2.84-4.13-3.51
				c-4.18-1.82-9.09-0.49-10.62,0.01v-0.41c1.64-0.52,6.24-1.69,10.32-0.15c1.78,0.67,3.46,1.86,4.76,3.85
				c1.71,2.61,2.74,4.86,3.56,6.66c0.46,1.01,0.86,1.88,1.28,2.6c1,1.73,2.1,2.58,4.45,2.52c3.36-0.08,4.84-3.92,6.42-8
				c1.07-2.76,2.16-5.59,3.91-7.18c0.93-0.85,2.04-1.35,3.44-1.31c4.24,0.11,6.45,4.97,8.59,9.68c0.73,1.6,1.44,3.16,2.21,4.49
				c1.23,2.13,2.6,3.68,4.43,3.86c3.11,0.31,4.1-2.48,5.15-5.45c0.65-1.84,1.32-3.72,2.53-4.92c0.77-0.77,1.77-1.26,3.12-1.28
				L198.05,149.52z"/>
		</g>
		<g>
			<g>
				<path class="st10" d="M122.88,147.32c-1.72-7.62-8.53-13.32-16.67-13.32v17.1L122.88,147.32z"/>
				<path class="st8" d="M106.2,151.1v-17.1c-9.44,0-17.1,7.65-17.1,17.1c0,9.47,7.63,17.1,17.1,17.1c9.44,0,17.1-7.65,17.1-17.1
					c0-1.3-0.15-2.56-0.42-3.78L106.2,151.1z"/>
			</g>
			<circle class="st0" cx="106.2" cy="151.39" r="13.07"/>
		</g>
		<g>
			<path class="st8" d="M198.16,130.55h-59.22c-0.84,0-1.52-0.68-1.52-1.52v-28.54c0-0.84,0.68-1.52,1.52-1.52h59.22
				c0.84,0,1.52,0.68,1.52,1.52v28.54C199.68,129.87,199,130.55,198.16,130.55z"/>
			<path class="st10" d="M196.54,103.23c-0.65,0-1.17,0.63-1.17,1.41c0,0.26,0.06,0.49,0.16,0.7l-9.51,12.94
				c-0.14-0.07-0.28-0.1-0.44-0.1c-0.17,0-0.33,0.05-0.48,0.13l-10.24-12.12c0.07-0.18,0.11-0.37,0.11-0.58
				c0-0.78-0.52-1.41-1.17-1.41c-0.64,0-1.17,0.63-1.17,1.41c0,0.22,0.04,0.42,0.11,0.6l-13.17,17.12
				c-0.19-0.16-0.42-0.26-0.67-0.26c-0.21,0-0.4,0.07-0.57,0.18l-7.21-11.3c0.14-0.23,0.22-0.51,0.22-0.82
				c0-0.78-0.52-1.41-1.17-1.41c-0.65,0-1.17,0.63-1.17,1.41c0,0.25,0.06,0.48,0.15,0.69l-8.07,12.6c-0.13-0.06-0.26-0.09-0.41-0.09
				c-0.65,0-1.17,0.63-1.17,1.41c0,0.78,0.52,1.41,1.17,1.41c0.65,0,1.17-0.63,1.17-1.41c0-0.28-0.07-0.54-0.19-0.76l8.05-12.56
				c0.14,0.08,0.3,0.12,0.47,0.12c0.12,0,0.24-0.03,0.35-0.07l7.3,11.45c-0.06,0.17-0.1,0.36-0.1,0.56c0,0.78,0.52,1.41,1.17,1.41
				c0.64,0,1.17-0.63,1.17-1.41c0-0.15-0.02-0.28-0.06-0.42l13.24-17.21c0.16,0.1,0.35,0.17,0.54,0.17c0.2,0,0.39-0.07,0.56-0.18
				l10.2,12.08c-0.09,0.2-0.15,0.43-0.15,0.68c0,0.78,0.52,1.41,1.17,1.41c0.64,0,1.17-0.63,1.17-1.41c0-0.26-0.06-0.51-0.17-0.72
				l9.51-12.93c0.14,0.07,0.3,0.11,0.46,0.11c0.64,0,1.17-0.63,1.17-1.41C197.71,103.87,197.19,103.23,196.54,103.23z"/>
		</g>
	</g>
	<g>
		<g>
			<path class="st11" d="M81.03,209.44c0,0-0.71,1.49-1.62,2.2c-4.56-2.35-8.62-5.78-10.14-7.12c0.12-0.36,0.35-0.74,0.65-1.15
				c0.56-0.77,2.14-3,3.22-4.54c0.32,0.83,1.24,2.25,3.85,3.29c-1.05,1.95,1.54,4.23,2.98,5.36
				C81.45,208.65,81.03,209.44,81.03,209.44z"/>
			<path class="st12" d="M78.43,199.9c0,0-0.08,0.1-1.35,2.08c-0.03,0.05-0.06,0.1-0.09,0.15c-2.62-1.04-3.53-2.46-3.85-3.29
				c0.62-0.89,1.08-1.54,1.08-1.54L78.43,199.9z"/>
			<path class="st13" d="M79.41,211.65c-0.22,0.17-0.46,0.3-0.7,0.35c-1.22,0.25-7.91-4.75-8.9-5.6c-0.66-0.56-0.79-1.17-0.54-1.87
				C70.78,205.87,74.85,209.29,79.41,211.65z"/>
		</g>
		<g>
			<path class="st11" d="M108.24,208.41c0,0,0.08,1.65-0.39,2.72c-5.14,0.08-10.35-1.03-12.33-1.5c-0.06-0.37-0.04-0.82,0.03-1.32
				c0.13-0.94,0.47-3.66,0.7-5.53c0.68,0.58,2.16,1.4,4.96,1.09c0,2.22,3.36,3.01,5.17,3.32
				C108.25,207.51,108.24,208.41,108.24,208.41z"/>
			<path class="st12" d="M101.43,201.21c0,0-0.03,0.13-0.21,2.48c0,0.06-0.01,0.12-0.01,0.17c-2.8,0.32-4.28-0.5-4.96-1.09
				c0.13-1.08,0.23-1.87,0.23-1.87L101.43,201.21z"/>
			<path class="st13" d="M107.85,211.13c-0.11,0.26-0.26,0.48-0.45,0.64c-0.96,0.8-9.23-0.46-10.51-0.74
				c-0.84-0.19-1.25-0.66-1.36-1.4C97.5,210.1,102.71,211.2,107.85,211.13z"/>
		</g>
		<g>
			<defs>
				<path id="SVGID_2_" d="M95.58,152.83c0,0-0.84,11.23-1.92,16.54c-1.08,5.31-1.16,9.94-5.19,16.71
					c-4.03,6.77-10.45,14.82-10.45,14.82s-4.11-0.77-3.86-4.11c0,0,7.63-11.48,8.48-21.76c0.86-10.28,1.37-21.08,1.37-21.08
					L95.58,152.83z"/>
			</defs>
			<use xlink:href="#SVGID_2_"  style="overflow:visible;fill:#1E2889;"/>
			<clipPath id="SVGID_3_">
				<use xlink:href="#SVGID_2_"  style="overflow:visible;"/>
			</clipPath>
			<path class="st14" d="M88.16,152.49c0,0-0.43,24.55-2.14,28.68c-1.71,4.13-10.24,18.79-10.24,18.79l-4.48-3.51l10.53-43.02
				L88.16,152.49z"/>
		</g>
		<g>
			<defs>
				<path id="SVGID_4_" d="M100.68,151.4l0.69,0.31c0,0,2.38,13.54,3.07,19.25c0.69,5.71-0.63,18.02-1.49,23.08
					c-0.86,5.06-1.46,8.31-1.46,8.31s-3.74,0.78-6.01-1.33c0,0,1.64-19.5,0.09-25.15s-1.92-8.14-1.92-8.14l0.46-16.34H100.68z"/>
			</defs>
			<use xlink:href="#SVGID_4_"  style="overflow:visible;fill:#1E2889;"/>
			<clipPath id="SVGID_5_">
				<use xlink:href="#SVGID_4_"  style="overflow:visible;"/>
			</clipPath>
			<path class="st15" d="M102.86,155.29c0,0-5.08,13.61-6.12,28.3c-1.04,14.7-1.71,2.44-1.71,2.44l-3.47-20.39l0.09-13.15
				c0,0,8.01-2.01,8.18-2.06c0.17-0.04,2.27-0.34,2.19,0S102.86,155.29,102.86,155.29z"/>
		</g>
		<g>
			<defs>
				<path id="SVGID_6_" d="M107.24,125.82c0,0,2.71,2.04,3.45,1.39c0.8-0.7,5.6-9.14,5.6-9.14s0.37-2.06,1.08-3.23
					c0.66-1.07,2.11-2.79,3.41-1.31c0.39,0.44,1.63,3.02,0.67,3.92c-1.09,1.02-0.66,0.45-2.45,1.6c-0.73,0.47-4.89,13-8.48,13.38
					c-1.55,0.16-5.53-2.85-5.53-2.85L107.24,125.82z"/>
			</defs>
			<use xlink:href="#SVGID_6_"  style="overflow:visible;fill:#FFACA6;"/>
			<clipPath id="SVGID_7_">
				<use xlink:href="#SVGID_6_"  style="overflow:visible;"/>
			</clipPath>
			<path class="st16" d="M107.11,131.9c0,0,2.85-0.73,2.76-5.63c-0.09-4.91-3.38-1.24-3.38-1.24l-2.21,4.13L107.11,131.9z"/>
		</g>
		
			<rect x="124.53" y="94" transform="matrix(0.8226 0.5686 -0.5686 0.8226 82.8929 -52.12)" class="st17" width="0.89" height="25.58"/>
		<path class="st18" d="M85.31,134.2c2.48-3.25,2.12-8.02,1.88-9.78c0.17,2.53-1.4,7.85-1.4,7.85s-0.05,0.17-0.12,0.47
			C85.58,133.07,85.46,133.57,85.31,134.2z"/>
		<path class="st18" d="M87.19,124.42c-0.02-0.26-0.05-0.5-0.11-0.69C87.08,123.72,87.13,123.98,87.19,124.42z"/>
		<path class="st18" d="M100.25,122.97c1.2,2.96,0.82,5.48,0.82,5.48l0.53,0.34c0.08-0.61,0.15-1.3,0.17-1.95
			C101.83,125.17,100.25,122.97,100.25,122.97z"/>
		<path class="st6" d="M107.32,124.55c0,0-3.61-3.35-4.9-5.24c-1.59-2.31-6.3-2.79-6.3-2.79l-4.48,0.02l-0.78-0.12
			c0,0-6.38,0.4-8.26,4.99c-1.89,4.58-2.66,8.97-2.66,8.97s0.13,0.14,0.35,0.35c0.66,0.6,2.18,1.76,4.09,1.75
			c0.45,0,0.92-0.07,1.4-0.22c0,0,1.57-5.31,1.4-7.85c-0.06-0.44-0.11-0.69-0.11-0.69c0.06,0.19,0.1,0.43,0.11,0.69
			c0.24,1.77,0.61,6.53-1.88,9.78c-0.43,1.86-1.06,4.87-1.46,8.19c-0.25,2.09-0.42,4.31-0.39,6.45c0.03,1.8,0.19,3.54,0.55,5.1
			c0,0,0.43,0.34,1.32,0.68c0.79,0.3,1.93,0.59,3.47,0.65c2.83,0.11,6.96-0.59,12.56-3.56c0,0-1.46-5.91-0.81-13.37
			c0.64-7.45,0.51-9.9,0.51-9.9s0.38-2.53-0.82-5.48c0,0,1.59,2.21,1.52,3.88c-0.02,0.65-0.09,1.34-0.17,1.95l3.07,1.97
			C104.67,130.77,107.84,127.64,107.32,124.55z"/>
		<g>
			<path class="st19" d="M83.33,135.87c0.35-1.14,0.76-2.42,1.07-3.39c-1.91,0.01-3.43-1.15-4.09-1.75
				c-0.21,0.59-0.45,1.3-0.69,2.05C80.84,133.22,82.62,134.13,83.33,135.87z"/>
			<path class="st20" d="M87.19,150.01c0,0-2-4.16-3.34-7.62c-0.77-1.98-1.66-2.66-1.5-3.25c0.13-0.48,0.7-2.36,0.98-3.27
				c-0.7-1.74-2.49-2.65-3.72-3.09c-0.67,2.08-1.69,5.56-1.6,6.66c0.11,1.47,3.58,6.09,5.46,9.4c0.82,1.44,1.4,2.43,1.4,2.43
				s0.35,1.62,0.47,3.36c0.03,0.47,0.05,0.95,0.04,1.4c-0.06,2.13,2.64,1.81,3.22,0.24c0.11-0.3,0.18-0.64,0.21-0.99
				C88.92,153.8,88.33,151.92,87.19,150.01z"/>
		</g>
		<path class="st19" d="M95.74,114.48c-0.07-0.7-0.09-1.53,0.01-2.4l-2.21-2.87l-2.76,1.11c0,0,0.61,1.69,0.52,3.75
			C92.23,113.9,93.91,113.76,95.74,114.48z"/>
		<g>
			<defs>
				<path id="XMLID_230_" d="M99.33,103.47c0,0,2.74-1.59,2.63-4.37s-1.39-4.86-4.07-4.65s-2.67-1.26-4.2-1.73
					c-1.51-0.46-4.67,0.35-4.8,2.58c-0.13,2.23-3.08,0.99-4.03,2.43c-0.94,1.44-1.24,3.36-0.6,4.77s-0.36,1.97-0.31,3.6
					c0.04,1.63,2.14,3.71,4.19,3.35c2.06-0.36,1.35,1.95,4.33,1.56C95.45,110.63,99.33,103.47,99.33,103.47z"/>
			</defs>
			<use xlink:href="#XMLID_230_"  style="overflow:visible;fill:#054AA9;"/>
			<clipPath id="XMLID_20_">
				<use xlink:href="#XMLID_230_"  style="overflow:visible;"/>
			</clipPath>
			<path class="st21" d="M92.45,111.39c0,0,0-0.31-0.86-0.97c-0.86-0.66-1.43-1.76-1.43-2.87s0.49-1.08,1.17-2.13
				c0.69-1.06-0.08-1.94,1.62-2.34c1.7-0.4,6.15-0.86,6.61-2.17c0.46-1.31,1.17,1.63,1.17,1.63l-5.28,4.63L92.45,111.39z"/>
		</g>
		<g>
			<defs>
				<path id="SVGID_8_" d="M99.74,101.87c0,0,1.35,7.15-0.19,10c-1.54,2.85-5.25,0.75-6.49-2.04c0,0-1.54,0.49-2.08-1.8
					c-0.54-2.29,1.71-1.84,1.91-1.18c0,0-0.94-2.29,0.15-2.74C94.13,103.67,99.59,103.62,99.74,101.87z"/>
			</defs>
			<use xlink:href="#SVGID_8_"  style="overflow:visible;fill:#FFACA6;"/>
			<clipPath id="SVGID_9_">
				<use xlink:href="#SVGID_8_"  style="overflow:visible;"/>
			</clipPath>
			<path class="st22" d="M92.43,110.86c0,0-2.06-2.83-0.6-3.06c1.46-0.23,1.71-0.33,1.66-0.97c-0.06-0.64-0.54-1.59,0.54-1.69
				c1.09-0.1,5.86-1.06,6.36-1.86c0.5-0.8-0.27-1.9-0.27-1.9l-2,1.11l-5.73,1.11l-0.94,1.99l-1.07,1.56l0.91,3.04L92.43,110.86z"/>
		</g>
		<g>
			<path class="st20" d="M91.3,114.08c-0.03,0.75-0.16,1.55-0.44,2.34c0,0,1.7,2.52,5.26,0.1c0,0-0.26-0.84-0.37-2.04
				C93.91,113.76,92.23,113.9,91.3,114.08z"/>
		</g>
	</g>
	<path class="st19" d="M206.71,159.2c0,0-12.49-2.52-13.33-3.34c-0.83-0.82-3.57-3.29-6.33-2.28c-2.76,1.01-2.79,2.53,0.46,3.22
		s2.66,1.69,5.28,1.48c0,0,6.98,4.02,14.35,5.43L206.71,159.2z"/>
	<g>
		<defs>
			<path id="SVGID_10_" d="M201.32,133.66c0,0-4.03-2.6-4.28-5.87c-0.26-3.28,2.29-5.15,3.88-5.13c0,0,1.76-5.43,7.25-4.14
				c5.5,1.29,7.35,7.49,7.58,9.74c0.23,2.25,3.35,8.38,1.36,10.06c-1.99,1.68-6.08,3.74-6.08,3.74s-7.79,1.59-9.38,0.42
				c0,0,2.15-2.32,1.52-5.36C202.54,134.08,201.32,133.66,201.32,133.66z"/>
		</defs>
		<use xlink:href="#SVGID_10_"  style="overflow:visible;fill:#0542BF;"/>
		<clipPath id="SVGID_11_">
			<use xlink:href="#SVGID_10_"  style="overflow:visible;"/>
		</clipPath>
		<path class="st23" d="M198.98,133.21c0,0,0.25-7.06,2.18-7.72c0,0,3.51,3.79,8.57,3.62c1.08-0.15,2.52,0.86,1.08,5.07
			c-1.43,4.2,3.73,7.05,3.73,7.05l-8,4.14l-6-2.14L198.98,133.21z"/>
	</g>
	<g>
		
			<rect x="11.38" y="81.52" transform="matrix(-1 -1.224647e-16 1.224647e-16 -1 81.2275 232.7957)" class="st4" width="58.46" height="69.75"/>
		
			<rect x="8.71" y="81.52" transform="matrix(-1 -1.224647e-16 1.224647e-16 -1 77.303 232.7957)" class="st24" width="59.89" height="69.75"/>
		
			<rect x="11.38" y="151.27" transform="matrix(-1 -1.224647e-16 1.224647e-16 -1 81.2275 307.5195)" class="st4" width="58.46" height="4.97"/>
		
			<rect x="4.25" y="151.27" transform="matrix(-1 -1.224647e-16 1.224647e-16 -1 68.3911 307.5195)" class="st24" width="59.89" height="4.97"/>
		
			<rect x="7.52" y="90.2" transform="matrix(-1.836970e-16 1 -1 -1.836970e-16 155.0494 77.7464)" class="st5" width="62.26" height="52.4"/>
		<polygon class="st8" points="58.42,147.53 36.44,85.27 26.06,85.27 48.04,147.53 		"/>
		<path class="st25" d="M63.12,126.41c0.15,0,0.27-0.12,0.27-0.27V87.7c0-0.15-0.12-0.27-0.27-0.27c-0.15,0-0.27,0.12-0.27,0.27
			v38.44C62.85,126.29,62.97,126.41,63.12,126.41z"/>
		<polygon class="st8" points="45.81,147.53 23.84,85.27 19.79,85.27 41.77,147.53 		"/>
		
			<rect x="-18.44" y="116.16" transform="matrix(-1.836970e-16 1 -1 -1.836970e-16 129.0882 103.7076)" class="st4" width="62.26" height="0.48"/>
		<polygon class="st4" points="7.82,90.06 66.28,90.06 66.63,86.72 8.17,86.72 		"/>
		<polygon class="st4" points="7.82,92.5 66.28,92.5 66.63,89.16 8.17,89.16 		"/>
		<polygon class="st4" points="7.82,95.43 66.28,95.43 66.63,92.09 8.17,92.09 		"/>
		<polygon class="st4" points="7.82,98.69 66.28,98.69 66.63,95.35 8.17,95.35 		"/>
		<polygon class="st4" points="7.82,102.59 66.28,102.59 66.63,99.26 8.17,99.26 		"/>
		<polygon class="st4" points="7.82,106.99 66.28,106.99 66.63,103.65 8.17,103.65 		"/>
	</g>
	<rect x="132.98" y="180.93" class="st0" width="15" height="6.63"/>
	<rect x="139.04" y="187.56" class="st2" width="15" height="6.63"/>
	<g>
		<defs>
			<path id="XMLID_223_" d="M209.57,139.03l0.88,0.22c0,0,1.36-0.29,3.4,3.01c2.03,3.3,4.82,11.28,3.63,22.12c0,0-4.92,2.75-10.52,0
				c0,0-0.23-4.53-2.15-8.18s-1.17-8-0.86-8.76c0.31-0.75,3.22-7.67,3.22-7.67L209.57,139.03z"/>
		</defs>
		<use xlink:href="#XMLID_223_"  style="overflow:visible;fill:#054AA9;"/>
		<clipPath id="XMLID_21_">
			<use xlink:href="#XMLID_223_"  style="overflow:visible;"/>
		</clipPath>
		<path class="st26" d="M202.92,157.75l8.67-10.14c0,0,3.64,15.19-0.95,18.9l-5.1-1.56L202.92,157.75z"/>
		<path class="st27" d="M216.87,165.78l-0.51-0.92c0,0,1.26-5.88-0.37-11.98c-1.63-6.1-3.06-9.11-6.27-13.41l2.01-1.13l3.84,3.22
			l3.55,11.32c0,0,0.17,7.42,0.17,7.69s-1.25,4.82-1.25,4.82L216.87,165.78z"/>
	</g>
	<path class="st20" d="M212.18,142.95L212.18,142.95c-1.06-0.69-2.47-0.39-3.15,0.67l-9.05,13.92c-1.5,0.21-12.52,1.72-13.51,1.26
		c-1.06-0.5-4.46-1.91-6.73-0.05c-2.26,1.87-1.79,3.31,1.51,2.89c3.3-0.43,3.07,0.71,5.47-0.36c0,0,7.18,1.33,14.26,0.49
		c0.88,0.16,1.81-0.2,2.33-1l9.53-14.66C213.53,145.05,213.23,143.64,212.18,142.95z"/>
	<path class="st19" d="M207.15,138.2c-0.05-0.99-0.2-2.19-0.63-2.91l2.56-3.31l0.47,0.96c0,0,0.2,1.45,0.46,2.96
		C209.26,136.11,208.11,136.68,207.15,138.2z"/>
	<path class="st20" d="M210.01,135.9c0.26,1.49,0.62,3.13,0.85,3.4c0,0-1.5,1.45-3.72,0.5c0,0,0.04-0.71,0-1.6
		C208.11,136.68,209.26,136.11,210.01,135.9z"/>
	<g>
		<defs>
			<path id="SVGID_12_" d="M201.29,126.46c0,0-1.59,9.15,1.8,10.72c3.39,1.57,5.87-3.3,5.87-3.72c0,0,1.76-0.16,1.48-2.04
				c-0.28-1.88-1.74-1.16-1.74-1.16S203.34,129.65,201.29,126.46z"/>
		</defs>
		<use xlink:href="#SVGID_12_"  style="overflow:visible;fill:#FFACA6;"/>
		<clipPath id="SVGID_13_">
			<use xlink:href="#SVGID_12_"  style="overflow:visible;"/>
		</clipPath>
		<path class="st28" d="M210.47,133.27c0,0-0.61-1.77-2.04-1.53c-1.42,0.25-5.91-0.97-7.93-3.9l0.09-2.12l5.84,2.28l4.56,1.91
			l0.19,2.79L210.47,133.27z"/>
	</g>
	<g>
		<g>
			<defs>
				<path id="SVGID_14_" d="M193.09,206.19c-3.4,5.32-6.64,4.34-6.64,4.34l-0.42-0.36c0.02-0.01,0.03-0.02,0.03-0.02
					s1.1-1.98,1.93-3.58c0.66-1.26-0.94-13.53-1.61-21.82c-0.18-2.18-0.29-4.08-0.28-5.43c0.02-3.82,1.12-5.2,2.03-5.69
					c0.64-0.35,1.19-0.25,1.19-0.25l3.58,7.43l-1.22,1.07c1.52,5.3,0.73,12.28,0.31,17.35c-0.42,5.08,0.55,6.2,0.55,6.2
					C192.76,205.68,192.94,205.94,193.09,206.19z"/>
			</defs>
			<use xlink:href="#SVGID_14_"  style="overflow:visible;fill:#FFACA6;"/>
			<clipPath id="SVGID_15_">
				<use xlink:href="#SVGID_14_"  style="overflow:visible;"/>
			</clipPath>
			<path class="st29" d="M188.1,203.48c0,0,0.86-14.39,2.12-17.35c1.26-2.96,1.51-3.98,2.87-3.74l1.11-2.2c0,0-2.27-5.19-2.23-5.31
				c0.04-0.12-3.14-1.52-3.14-1.52l-2.8,3.83v7.39l-0.4,6.54L188.1,203.48z"/>
		</g>
		<path class="st17" d="M193.09,206.19c-3.4,5.32-6.64,4.34-6.64,4.34l-0.42-0.36c-0.3,0.18-2.79,1.65-3.07,3.15
			c-0.3,1.59,5.81,1.62,6.97,0.04l1.64-2.9l0.44,3.19l0.82-0.02l0.63-3.94C193.46,209.69,194.16,208.02,193.09,206.19z"/>
	</g>
	<g>
		<path class="st17" d="M175.96,205.12l-0.03-0.05c-0.35,0.09-2.99,0.8-3.64,2.1c-0.69,1.39,4.93,3,6.41,1.85l2.27-2.24l-0.42,3.05
			l0.76,0.2l1.6-3.47c0,0,0.99-1.25,0.62-3.08C178.6,207.13,175.96,205.12,175.96,205.12z"/>
		<path class="st20" d="M188.62,172.33l-0.1-0.3c0,0-2.77-1.36-4.5,4.64c-1.73,6-4.15,24.34-5.33,25.59
			c-1.18,1.25-2.71,2.79-2.71,2.79s-0.02,0-0.04,0.01l0.03,0.05c0,0,2.64,2,7.57-1.65c-0.07-0.34-0.18-0.71-0.37-1.09
			c0,0-0.6-1.29,1.1-5.85c1.36-3.64,3.59-8.63,4.33-13.26l0.85-3.82l0.28-1.69L188.62,172.33z"/>
	</g>
	<g>
		<defs>
			<path id="SVGID_16_" d="M217.34,163.7l0.13,0.67c0,0,0.55,3.11,1.39,5.94c1,3.38-0.57,8.66-4.93,9.61
				c-4.36,0.95-21.17,0.92-21.17,0.92s-5.34-4.98-5.56-9.06c0,0,10.4-3.02,18.99-3.9l0.96-4.46L217.34,163.7z"/>
		</defs>
		<use xlink:href="#SVGID_16_"  style="overflow:visible;fill:#FFAB00;"/>
		<clipPath id="SVGID_17_">
			<use xlink:href="#SVGID_16_"  style="overflow:visible;"/>
		</clipPath>
		<path class="st30" d="M212.43,163.43c0,0,1.33,9.09-5.03,10.68s-19.88,3.53-19.88,3.53s-1.83-5.85-1.89-6.64
			c-0.06-0.79,7.61-4.26,8.4-4.32c0.79-0.06,10.6-0.39,10.6-0.77c0-0.39,0.55-3.86,0.55-3.86L212.43,163.43z"/>
	</g>
	<g>
		<g>
			<g>
				<defs>
					<path id="SVGID_18_" d="M207.98,186.35v16.04h-2.54v-15.32C206.34,186.44,207.27,186.31,207.98,186.35z"/>
				</defs>
				<use xlink:href="#SVGID_18_"  style="overflow:visible;fill:#0542BF;"/>
				<clipPath id="SVGID_19_">
					<use xlink:href="#SVGID_18_"  style="overflow:visible;"/>
				</clipPath>
				<path class="st31" d="M208.57,187.71c0,0-2.19,0.36-3.44,2.54s-2.29-0.25-2.05-1.25c0.24-1,0.12-2.01,0.76-2.78
					c0.64-0.76,1.87-1.85,3.55-1.44c1.68,0.42,1.9,0.19,1.81,1.12c-0.09,0.94-0.25,1.95-0.25,1.95"/>
			</g>
			<ellipse class="st32" cx="215.95" cy="213.7" rx="1.96" ry="2.03"/>
			<path class="st32" d="M204.63,215.52c0,1.12,0.88,2.03,1.96,2.03c1.08,0,1.96-0.91,1.96-2.03c0-1.12-0.88-2.03-1.96-2.03
				C205.51,213.5,204.63,214.4,204.63,215.52z"/>
			<path class="st32" d="M195.37,213.7c0,1.12,0.88,2.03,1.96,2.03c1.08,0,1.96-0.91,1.96-2.03c0-1.12-0.88-2.03-1.96-2.03
				C196.25,211.67,195.37,212.58,195.37,213.7z"/>
			<path class="st17" d="M208.45,202.35c0,0-1.71-0.65-3.53,0l-0.05,2.29l-8.9,6.87v1.63h2.63l0.04-1.25l6.82-4.98l-0.04,6.24
				l0.34,1.47h1.78l0.33-1.45l0.07-6.08l6.78,4.76l0.03,1.22l2.44,0.01v-1.73l-8.73-6.67v-1.37L208.45,202.35z"/>
		</g>
		<path class="st32" d="M225.74,164.78v6.67c0,0,0.41,4.3-1.53,6.47c-1.76,1.96-5.78,3.43-6.51,3.68c-0.07,0.03-0.11,0.04-0.11,0.04
			l-0.94-2.09c-0.26-0.06,2.59-0.77,5.4-3.21c0.93-0.81,1.04-2.98,1.07-4.69c0.03-1.71,0-7.08,0-7.08l2.66-0.2L225.74,164.78z"/>
		<g>
			<defs>
				<path id="SVGID_20_" d="M195.44,187.14h22.93c0.77,0,1.39-0.62,1.39-1.39v-4.94c0-0.77-0.62-1.39-1.39-1.39h-22.93
					c-0.77,0-1.39,0.62-1.39,1.39v4.94C194.05,186.52,194.67,187.14,195.44,187.14z"/>
			</defs>
			<use xlink:href="#SVGID_20_"  style="overflow:visible;fill:#0542BF;"/>
			<clipPath id="SVGID_21_">
				<use xlink:href="#SVGID_20_"  style="overflow:visible;"/>
			</clipPath>
			<polygon class="st33" points="193.39,183.08 222.95,183.08 221.21,177.8 194.2,178.86 			"/>
		</g>
		<path class="st34" d="M222.06,164.99h5.32c0.74,0,1.34-0.6,1.34-1.34v-16.83c0-0.74-0.6-1.34-1.34-1.34h-5.32
			c-0.74,0-1.34,0.6-1.34,1.34v16.83C220.73,164.39,221.32,164.99,222.06,164.99z"/>
	</g>
	<g>
		<g>
			<path class="st34" d="M78.02,161.98l-1.05-0.3c-0.18-0.05-0.28-0.23-0.23-0.41l5.17-18.25c0.05-0.18,0.23-0.28,0.41-0.23
				l1.05,0.3c0.18,0.05,0.28,0.23,0.23,0.41l-5.17,18.25C78.38,161.93,78.2,162.03,78.02,161.98z"/>
			<path class="st34" d="M76.67,163.49H56.75c-0.13,0-0.24-0.11-0.24-0.24v-1.45c0-0.13,0.11-0.24,0.24-0.24h19.92
				c0.13,0,0.24,0.11,0.24,0.24v1.45C76.92,163.39,76.81,163.49,76.67,163.49z"/>
		</g>
	</g>
	<g>
		<path class="st35" d="M167.52,161.98l1.05-0.3c0.18-0.05,0.28-0.23,0.23-0.41l-5.17-18.25c-0.05-0.18-0.23-0.28-0.41-0.23
			l-1.05,0.3c-0.18,0.05-0.28,0.23-0.23,0.41l5.17,18.25C167.16,161.93,167.35,162.03,167.52,161.98z"/>
		<path class="st35" d="M168.87,163.49h19.92c0.13,0,0.24-0.11,0.24-0.24v-1.45c0-0.13-0.11-0.24-0.24-0.24h-19.92
			c-0.13,0-0.24,0.11-0.24,0.24v1.45C168.63,163.39,168.74,163.49,168.87,163.49z"/>
	</g>
	<path class="st36" d="M61.66,207.11c0,0,0.04,1.73-0.11,3.1c-0.14,1.37-1.19,2.37-0.84,3.7c0.34,1.33,4.26,1.77,7.01,2.39
		c2.76,0.61,5.28,0.27,5.14-1.86c-0.14-2.13-4.75-1.77-6.26-4.55c-1.51-2.78-0.93-3.16-0.93-3.16L61.66,207.11z"/>
	<path class="st37" d="M66.08,173.25c0,0,1.4,0.73,1.4,3.11c0,2.38-0.7,31.42-0.7,31.42s-2.71,2.19-6.06-0.3l-0.79-16.14
		L66.08,173.25z"/>
	<g>
		<defs>
			<path id="SVGID_22_" d="M48.43,170.05c0,0,11.76,0.31,16.02,1.26c5.11,1.14,4.96,5.61,3.77,9.26
				c-1.19,3.65-13.34,27.16-13.34,27.16s-2.55,1.37-5.8-1.71c0,0,9.36-21.93,8.63-23.47s-17.32,0.45-19.88-2.59
				c-0.45-0.54,1.04-2.69,1.04-2.69L48.43,170.05z"/>
		</defs>
		<use xlink:href="#SVGID_22_"  style="overflow:visible;fill:#1E2889;"/>
		<clipPath id="SVGID_23_">
			<use xlink:href="#SVGID_22_"  style="overflow:visible;"/>
		</clipPath>
		<path class="st38" d="M42.1,181.9c0,0,4.19-0.06,8.91-4.08c4.72-4.02,13.19-5.84,16.17,2.74c1.72,4.33,1.72,4.33,1.72,4.33
			s1.69-8.78,1.69-8.96c0-0.18-1.05-5.32-1.44-5.89c-0.39-0.57-21.52-1.95-21.52-1.95l-7,5.16l-2.89,7.21L42.1,181.9z"/>
	</g>
	<g>
		<path class="st19" d="M74.31,158.25c-2.36-1.95-5.91-0.47-7.02,0.05c-0.86,0.4-8.99-0.63-12.58-1.11l-9.65-14.85
			c-0.74-1.14-2.28-1.47-3.42-0.73l-0.15,0.1c-1.14,0.74-1.47,2.28-0.73,3.42l9.84,15.14c0.18,0.27,0.39,0.49,0.64,0.67l-0.18,0.4
			c7.73,1.17,15.96-0.46,15.96-0.46c2.51,1.11,2.26-0.07,5.71,0.38C76.18,161.71,76.67,160.19,74.31,158.25z"/>
		<path class="st39" d="M42.63,154.14c0,0-2.93-5.01-4.12-7.86c-1.2-2.84-1.9-6.32-0.41-7.59c1.49-1.27,4.01-1.18,5.36,0.68
			c1.35,1.86,6.37,9.87,6.37,9.87S48.03,155.16,42.63,154.14z"/>
	</g>
	<g>
		<defs>
			<path id="SVGID_24_" d="M38.46,135.78l-0.65,0.07c0,0-2.17,0.42-3.41,3.53c-1.25,3.11-2.84,9.83-2.98,13.02
				c-0.14,3.19-0.84,14.95,1.29,20.86c2.13,5.91,4.18,7.31,5.74,7.31c0,0,10.09,0.3,11.12-10.48c0,0-3-0.39-3.74-2.96
				c-0.73-2.57-1.35-7.67-1.38-10.28c-0.05-4.35,0.88-10.79-0.9-17.36c-0.17-1-1.06-1.64-1.06-1.64L38.46,135.78z"/>
		</defs>
		<use xlink:href="#SVGID_24_"  style="overflow:visible;fill:#FFAB00;"/>
		<clipPath id="SVGID_25_">
			<use xlink:href="#SVGID_24_"  style="overflow:visible;"/>
		</clipPath>
		<path class="st40" d="M36.75,143.25l-0.94,0.17c0,0,0.21,5.07,1.22,9.41c1.02,4.35,1.66,8.2,1.95,13.97
			c0.28,5.77,7.02,12.22,7.02,12.22l6.25-10.27c0,0-4.63-8.33-4.71-9.06s-4.16-11.89-4.16-11.89L36.75,143.25z"/>
	</g>
	<path class="st20" d="M72.87,160.28c-2.36-1.95-5.91-0.47-7.02,0.05c-0.96,0.45-10.92-0.88-13.61-1.25l-9.56-14.71
		c-0.74-1.14-2.28-1.47-3.42-0.73l-0.15,0.1c-1.14,0.74-1.47,2.28-0.73,3.42l9.84,15.14c0.34,0.53,0.85,0.88,1.41,1.03l-0.02,0.04
		c7.73,1.17,15.96-0.46,15.96-0.46c2.51,1.11,2.26-0.07,5.71,0.38C74.74,163.74,75.23,162.22,72.87,160.28z"/>
	<path class="st41" d="M41.19,156.17c0,0-2.93-5.01-4.12-7.86c-1.2-2.84-1.9-6.32-0.41-7.59c1.49-1.27,4.01-1.18,5.36,0.68
		c1.35,1.86,6.37,9.87,6.37,9.87S46.59,157.19,41.19,156.17z"/>
	<g>
		<defs>
			<path id="SVGID_26_" d="M38.93,130.95l0.18,1.23c0,0-0.3,2.38-1.3,3.67c0,0,0.16,1.05,1.75,1.82c1.6,0.78,2.95,0.17,2.95,0.17
				s-0.27-1.81,0.47-4.05c0.74-2.23,0.76-2.31,0.76-2.31l-2.86-3.3L38.93,130.95z"/>
		</defs>
		<use xlink:href="#SVGID_26_"  style="overflow:visible;fill:#FFACA6;"/>
		<clipPath id="SVGID_27_">
			<use xlink:href="#SVGID_26_"  style="overflow:visible;"/>
		</clipPath>
		<path class="st42" d="M37.1,132.78c0,0,4.44,0.7,5.74,3.9l1.68-4.6l0.49-2.68l-4.95-0.92c0,0-1.01,1.18-1.41,2.14
			S37.1,132.78,37.1,132.78z"/>
	</g>
	<g>
		<defs>
			<path id="SVGID_28_" d="M46.33,122.22l0.51-0.72c0,0,2.76-1.23,3.39-4.24c0.62-3-0.32-4.06-0.32-4.06s-2.46,2.25-5.77,2.08
				c-3.3-0.16-7.31-1.35-10.58,3.11c-3.28,4.47,0.38,9.07,1.22,10.2c0.84,1.14,4.33,3.57,4.33,3.57l2.65-3.98L46.33,122.22z"/>
		</defs>
		<use xlink:href="#SVGID_28_"  style="overflow:visible;fill:#1E2889;"/>
		<clipPath id="SVGID_29_">
			<use xlink:href="#SVGID_28_"  style="overflow:visible;"/>
		</clipPath>
		<path class="st43" d="M33.79,128.17c0,0,2.58,0.78,3.46-2.14c0.88-2.92,3.44-4.22,7.18-5.44c3.74-1.22,6.13-2.67,6.9-4.18
			l-1.22,6.27L45.52,129l-5.65,4.71l-4.62-1.79L33.79,128.17z"/>
	</g>
	<g>
		<defs>
			<path id="SVGID_30_" d="M46.78,121.25c0,0,1.38,5.28,1.02,8.49c-0.37,3.21-4.11,4.4-7.05-0.58c0,0-1.79-0.03-1.81-2.57
				c0-1.03,0.73-1.43,1.68-1.08c0,0,0.22-1.27,1.33-1.33c1.11-0.05,0.98-1.35,1.59-1.68C44.12,122.17,46.01,122.6,46.78,121.25z"/>
		</defs>
		<use xlink:href="#SVGID_30_"  style="overflow:visible;fill:#FFACA6;"/>
		<clipPath id="SVGID_31_">
			<use xlink:href="#SVGID_30_"  style="overflow:visible;"/>
		</clipPath>
		<path class="st44" d="M38.66,128.17c0,0,0.57-1.14,2.11-1.29c1.54-0.15,7.06-3.93,7.06-3.93l-0.81-2.52l-6.25,1.3l-3.17,3.33
			L38.66,128.17z"/>
	</g>
	<g>
		<g>
			<g>
				<defs>
					<path id="SVGID_32_" d="M41.94,187.96V204h2.54v-15.32C43.59,188.05,42.65,187.92,41.94,187.96z"/>
				</defs>
				<use xlink:href="#SVGID_32_"  style="overflow:visible;fill:#0542BF;"/>
				<clipPath id="SVGID_33_">
					<use xlink:href="#SVGID_32_"  style="overflow:visible;"/>
				</clipPath>
				<path class="st45" d="M41.35,189.31c0,0,2.19,0.36,3.44,2.54c1.25,2.18,2.29-0.25,2.05-1.25c-0.24-1-0.12-2.01-0.76-2.78
					c-0.64-0.76-1.87-1.85-3.55-1.44c-1.68,0.42-1.9,0.19-1.81,1.12c0.09,0.94,0.25,1.95,0.25,1.95"/>
			</g>
			<ellipse class="st32" cx="33.97" cy="215.31" rx="1.96" ry="2.03"/>
			<path class="st32" d="M45.29,217.13c0,1.12-0.88,2.03-1.96,2.03c-1.08,0-1.96-0.91-1.96-2.03c0-1.12,0.88-2.03,1.96-2.03
				C44.41,215.1,45.29,216.01,45.29,217.13z"/>
			<path class="st32" d="M54.55,215.31c0,1.12-0.88,2.03-1.96,2.03c-1.08,0-1.96-0.91-1.96-2.03c0-1.12,0.88-2.03,1.96-2.03
				C53.67,213.28,54.55,214.19,54.55,215.31z"/>
			<path class="st17" d="M41.48,203.96c0,0,1.71-0.65,3.53,0l0.05,2.29l8.9,6.87v1.63h-2.63l-0.04-1.25l-6.82-4.98l0.04,6.24
				l-0.34,1.47h-1.78l-0.33-1.45L42,208.69l-6.78,4.76l-0.03,1.22l-2.44,0.01v-1.73l8.73-6.67v-1.37L41.48,203.96z"/>
		</g>
		<path class="st32" d="M24.18,166.39v6.67c0,0-0.41,4.3,1.53,6.47c1.76,1.96,5.78,3.43,6.51,3.68c0.07,0.03,0.11,0.04,0.11,0.04
			l0.94-2.09c0.26-0.06-2.59-0.77-5.4-3.21c-0.93-0.81-1.04-2.98-1.07-4.69c-0.03-1.71,0-7.08,0-7.08l-2.66-0.2L24.18,166.39z"/>
		<g>
			<defs>
				<path id="SVGID_34_" d="M54.49,188.75H31.55c-0.77,0-1.39-0.62-1.39-1.39v-4.94c0-0.77,0.62-1.39,1.39-1.39h22.93
					c0.77,0,1.39,0.62,1.39,1.39v4.94C55.87,188.13,55.25,188.75,54.49,188.75z"/>
			</defs>
			<use xlink:href="#SVGID_34_"  style="overflow:visible;fill:#0542BF;"/>
			<clipPath id="SVGID_35_">
				<use xlink:href="#SVGID_34_"  style="overflow:visible;"/>
			</clipPath>
			<polygon class="st46" points="29.2,184.4 56.51,184.4 55.87,179.89 28.27,180.2 			"/>
		</g>
		<path class="st34" d="M27.86,166.6h-5.32c-0.74,0-1.34-0.6-1.34-1.34v-16.83c0-0.74,0.6-1.34,1.34-1.34h5.32
			c0.74,0,1.34,0.6,1.34,1.34v16.83C29.2,166,28.6,166.6,27.86,166.6z"/>
	</g>
	<g>
		<path class="st47" d="M49.08,206.02c0.14,0.13,0.27,0.25,0.41,0.37c0.79-0.93,1.52-1.97,1.52-1.97l3.45,2.07
			c0,0-0.43-0.03-0.83,1.54c0.79-0.05,1.25-0.3,1.25-0.3s12.15-23.51,13.34-27.16c1.19-3.65,1.34-8.12-3.77-9.26
			c-4.26-0.95-16.02-1.26-16.02-1.26l-9.56,7.23c0,0-1.5,2.15-1.04,2.69c2.56,3.04,19.15,1.05,19.88,2.59"/>
		<path class="st36" d="M53.62,208.03c-0.98,0.06-2.45-0.2-4.14-1.64c-0.13,0.16-0.27,0.32-0.41,0.46c-0.93,1.02-2.36,1.2-2.88,2.48
			c-0.52,1.28,2.37,3.95,4.22,6.09c1.85,2.13,4.09,3.36,5.24,1.56c1.15-1.8-2.77-4.25-2.33-7.38
			C53.42,208.94,53.52,208.43,53.62,208.03z"/>
	</g>
	<g>
		<g>
			<rect x="49.58" y="163.71" class="st48" width="157.85" height="1.89"/>
			<rect x="49.58" y="165.6" class="st34" width="157.85" height="2.5"/>
		</g>
		<rect x="58.68" y="168.1" class="st32" width="1.97" height="51.81"/>
		<rect x="196.04" y="168.1" class="st32" width="1.97" height="51.81"/>
	</g>
	<g>
		<polygon class="st1" points="202.44,78.85 202.16,79.65 144.54,55.73 86.92,79.65 86.64,78.85 143.87,55.09 144.54,54.82 
			145.21,55.09 		"/>
	</g>
</g>
</svg>
